solid PyloxDeck Plus
facet normal 0.0 0.0 -1.0
  outer loop
    vertex 154.53971551065078 25.559039737190744 -0.6999999999999996
    vertex 154.437492989518 11.782582601883183 -0.6999999999999996
    vertex 154.437492989518 24.78258260188318 -0.6999999999999996
  endloop
endfacet
facet normal 0.0 0.0 -1.0
  outer loop
    vertex 154.437492989518 11.782582601883183 -0.6999999999999996
    vertex 154.53971551065078 25.559039737190744 -0.6999999999999996
    vertex 154.53971551065078 11.006125466575622 -0.6999999999999996
  endloop
endfacet
facet normal 0.0 0.0 -1.0
  outer loop
    vertex 154.53971551065078 11.006125466575622 -0.6999999999999996
    vertex 154.53971551065078 25.559039737190744 -0.6999999999999996
    vertex 154.83941677816466 26.282582601883185 -0.6999999999999996
  endloop
endfacet
facet normal 0.0 0.0 -1.0
  outer loop
    vertex 154.53971551065078 11.006125466575622 -0.6999999999999996
    vertex 154.83941677816466 26.282582601883185 -0.6999999999999996
    vertex 154.83941677816466 10.282582601883187 -0.6999999999999996
  endloop
endfacet
facet normal 0.0 0.0 -1.0
  outer loop
    vertex 154.83941677816466 10.282582601883187 -0.6999999999999996
    vertex 154.83941677816466 26.282582601883185 -0.6999999999999996
    vertex 155.31617264595835 26.903902945442823 -0.6999999999999996
  endloop
endfacet
facet normal 0.0 0.0 -1.0
  outer loop
    vertex 154.83941677816466 10.282582601883187 -0.6999999999999996
    vertex 155.31617264595835 26.903902945442823 -0.6999999999999996
    vertex 155.31617264595835 9.661262258323541 -0.6999999999999996
  endloop
endfacet
facet normal 0.0 0.0 -1.0
  outer loop
    vertex 155.31617264595835 9.661262258323541 -0.6999999999999996
    vertex 155.31617264595835 26.903902945442823 -0.6999999999999996
    vertex 155.937492989518 27.3806588132365 -0.6999999999999996
  endloop
endfacet
facet normal 0.0 0.0 -1.0
  outer loop
    vertex 155.31617264595835 9.661262258323541 -0.6999999999999996
    vertex 155.937492989518 27.3806588132365 -0.6999999999999996
    vertex 155.937492989518 9.184506390529869 -0.6999999999999996
  endloop
endfacet
facet normal 0.0 0.0 -1.0
  outer loop
    vertex 155.937492989518 9.184506390529869 -0.6999999999999996
    vertex 155.937492989518 27.3806588132365 -0.6999999999999996
    vertex 156.66103585421044 27.680360080750386 -0.6999999999999996
  endloop
endfacet
facet normal 0.0 0.0 -1.0
  outer loop
    vertex 155.937492989518 9.184506390529869 -0.6999999999999996
    vertex 156.66103585421044 27.680360080750386 -0.6999999999999996
    vertex 156.66103585421044 8.884805123015978 -0.6999999999999996
  endloop
endfacet
facet normal 0.0 0.0 -1.0
  outer loop
    vertex 156.66103585421044 8.884805123015978 -0.6999999999999996
    vertex 156.66103585421044 27.680360080750386 -0.6999999999999996
    vertex 157.437492989518 27.78258260188318 -0.6999999999999996
  endloop
endfacet
facet normal 0.0 0.0 -1.0
  outer loop
    vertex 156.66103585421044 8.884805123015978 -0.6999999999999996
    vertex 157.437492989518 27.78258260188318 -0.6999999999999996
    vertex 157.437492989518 8.782582601883183 -0.6999999999999996
  endloop
endfacet
facet normal 0.0 0.0 -1.0
  outer loop
    vertex 157.437492989518 8.782582601883183 -0.6999999999999996
    vertex 157.437492989518 27.78258260188318 -0.6999999999999996
    vertex 170.437492989518 27.78258260188318 -0.6999999999999996
  endloop
endfacet
facet normal 0.0 0.0 -1.0
  outer loop
    vertex 157.437492989518 8.782582601883183 -0.6999999999999996
    vertex 170.437492989518 27.78258260188318 -0.6999999999999996
    vertex 170.437492989518 8.782582601883183 -0.6999999999999996
  endloop
endfacet
facet normal 0.0 0.0 -1.0
  outer loop
    vertex 170.437492989518 8.782582601883183 -0.6999999999999996
    vertex 170.437492989518 27.78258260188318 -0.6999999999999996
    vertex 171.21395012482557 27.680360080750386 -0.6999999999999996
  endloop
endfacet
facet normal 0.0 0.0 -1.0
  outer loop
    vertex 170.437492989518 8.782582601883183 -0.6999999999999996
    vertex 171.21395012482557 27.680360080750386 -0.6999999999999996
    vertex 171.21395012482557 8.884805123015978 -0.6999999999999996
  endloop
endfacet
facet normal 0.0 0.0 -1.0
  outer loop
    vertex 171.21395012482557 8.884805123015978 -0.6999999999999996
    vertex 171.21395012482557 27.680360080750386 -0.6999999999999996
    vertex 171.937492989518 27.3806588132365 -0.6999999999999996
  endloop
endfacet
facet normal 0.0 0.0 -1.0
  outer loop
    vertex 171.21395012482557 8.884805123015978 -0.6999999999999996
    vertex 171.937492989518 27.3806588132365 -0.6999999999999996
    vertex 171.937492989518 9.184506390529867 -0.6999999999999996
  endloop
endfacet
facet normal 0.0 0.0 -1.0
  outer loop
    vertex 171.937492989518 9.184506390529867 -0.6999999999999996
    vertex 171.937492989518 27.3806588132365 -0.6999999999999996
    vertex 172.55881333307767 26.903902945442823 -0.6999999999999996
  endloop
endfacet
facet normal 0.0 0.0 -1.0
  outer loop
    vertex 171.937492989518 9.184506390529867 -0.6999999999999996
    vertex 172.55881333307767 26.903902945442823 -0.6999999999999996
    vertex 172.55881333307767 9.661262258323541 -0.6999999999999996
  endloop
endfacet
facet normal 0.0 0.0 -1.0
  outer loop
    vertex 172.55881333307767 9.661262258323541 -0.6999999999999996
    vertex 172.55881333307767 26.903902945442823 -0.6999999999999996
    vertex 173.03556920087135 26.282582601883178 -0.6999999999999996
  endloop
endfacet
facet normal 0.0 0.0 -1.0
  outer loop
    vertex 172.55881333307767 9.661262258323541 -0.6999999999999996
    vertex 173.03556920087135 26.282582601883178 -0.6999999999999996
    vertex 173.03556920087135 10.282582601883183 -0.6999999999999996
  endloop
endfacet
facet normal 0.0 0.0 -1.0
  outer loop
    vertex 173.03556920087135 10.282582601883183 -0.6999999999999996
    vertex 173.03556920087135 26.282582601883178 -0.6999999999999996
    vertex 173.33527046838523 25.559039737190744 -0.6999999999999996
  endloop
endfacet
facet normal 0.0 0.0 -1.0
  outer loop
    vertex 173.03556920087135 10.282582601883183 -0.6999999999999996
    vertex 173.33527046838523 25.559039737190744 -0.6999999999999996
    vertex 173.33527046838523 11.00612546657562 -0.6999999999999996
  endloop
endfacet
facet normal 0.0 0.0 -1.0
  outer loop
    vertex 173.33527046838523 11.00612546657562 -0.6999999999999996
    vertex 173.33527046838523 25.559039737190744 -0.6999999999999996
    vertex 173.437492989518 24.78258260188318 -0.6999999999999996
  endloop
endfacet
facet normal 0.0 0.0 -1.0
  outer loop
    vertex 173.33527046838523 11.00612546657562 -0.6999999999999996
    vertex 173.437492989518 24.78258260188318 -0.6999999999999996
    vertex 173.437492989518 11.782582601883183 -0.6999999999999996
  endloop
endfacet
facet normal -1.0 0.0 0.0
  outer loop
    vertex 154.437492989518 24.78258260188318 1.0000000000000002
    vertex 154.437492989518 11.782582601883183 -0.6999999999999996
    vertex 154.437492989518 11.782582601883183 1.0000000000000002
  endloop
endfacet
facet normal -1.0 0.0 0.0
  outer loop
    vertex 154.437492989518 11.782582601883183 -0.6999999999999996
    vertex 154.437492989518 24.78258260188318 1.0000000000000002
    vertex 154.437492989518 24.78258260188318 -0.6999999999999996
  endloop
endfacet
facet normal -0.9914448613738114 0.1305261922200446 0.0
  outer loop
    vertex 154.53971551065078 25.559039737190744 1.0000000000000002
    vertex 154.437492989518 24.78258260188318 -0.6999999999999996
    vertex 154.437492989518 24.78258260188318 1.0000000000000002
  endloop
endfacet
facet normal -0.9914448613738114 0.1305261922200446 0.0
  outer loop
    vertex 154.437492989518 24.78258260188318 -0.6999999999999996
    vertex 154.53971551065078 25.559039737190744 1.0000000000000002
    vertex 154.53971551065078 25.559039737190744 -0.6999999999999996
  endloop
endfacet
facet normal -0.7933533402912324 0.6087614290087242 0.0
  outer loop
    vertex 155.31617264595835 26.903902945442823 1.0000000000000002
    vertex 154.83941677816466 26.282582601883185 -0.6999999999999996
    vertex 154.83941677816466 26.282582601883185 1.0000000000000002
  endloop
endfacet
facet normal -0.7933533402912324 0.6087614290087242 0.0
  outer loop
    vertex 154.83941677816466 26.282582601883185 -0.6999999999999996
    vertex 155.31617264595835 26.903902945442823 1.0000000000000002
    vertex 155.31617264595835 26.903902945442823 -0.6999999999999996
  endloop
endfacet
facet normal -0.0 -1.0 -0.0
  outer loop
    vertex 170.437492989518 8.782582601883183 1.0000000000000002
    vertex 157.437492989518 8.782582601883183 -0.6999999999999996
    vertex 170.437492989518 8.782582601883183 -0.6999999999999996
  endloop
endfacet
facet normal -0.0 -1.0 -0.0
  outer loop
    vertex 157.437492989518 8.782582601883183 -0.6999999999999996
    vertex 170.437492989518 8.782582601883183 1.0000000000000002
    vertex 157.437492989518 8.782582601883183 1.0000000000000002
  endloop
endfacet
facet normal -0.608761429008715 -0.7933533402912395 -0.0
  outer loop
    vertex 155.937492989518 9.184506390529869 1.0000000000000002
    vertex 155.31617264595835 9.661262258323541 -0.6999999999999996
    vertex 155.937492989518 9.184506390529869 -0.6999999999999996
  endloop
endfacet
facet normal -0.608761429008715 -0.7933533402912395 -0.0
  outer loop
    vertex 155.31617264595835 9.661262258323541 -0.6999999999999996
    vertex 155.937492989518 9.184506390529869 1.0000000000000002
    vertex 155.31617264595835 9.661262258323541 1.0000000000000002
  endloop
endfacet
facet normal -0.9914448613738113 -0.13052619222004483 -0.0
  outer loop
    vertex 154.437492989518 11.782582601883183 1.0000000000000002
    vertex 154.53971551065078 11.006125466575622 -0.6999999999999996
    vertex 154.53971551065078 11.006125466575622 1.0000000000000002
  endloop
endfacet
facet normal -0.9914448613738113 -0.13052619222004483 -0.0
  outer loop
    vertex 154.53971551065078 11.006125466575622 -0.6999999999999996
    vertex 154.437492989518 11.782582601883183 1.0000000000000002
    vertex 154.437492989518 11.782582601883183 -0.6999999999999996
  endloop
endfacet
facet normal -0.9238795325112906 0.38268343236508084 0.0
  outer loop
    vertex 154.83941677816466 26.282582601883185 1.0000000000000002
    vertex 154.53971551065078 25.559039737190744 -0.6999999999999996
    vertex 154.53971551065078 25.559039737190744 1.0000000000000002
  endloop
endfacet
facet normal -0.9238795325112906 0.38268343236508084 0.0
  outer loop
    vertex 154.53971551065078 25.559039737190744 -0.6999999999999996
    vertex 154.83941677816466 26.282582601883185 1.0000000000000002
    vertex 154.83941677816466 26.282582601883185 -0.6999999999999996
  endloop
endfacet
facet normal -0.793353340291235 -0.6087614290087207 -0.0
  outer loop
    vertex 154.83941677816466 10.282582601883187 1.0000000000000002
    vertex 155.31617264595835 9.661262258323541 -0.6999999999999996
    vertex 155.31617264595835 9.661262258323541 1.0000000000000002
  endloop
endfacet
facet normal -0.793353340291235 -0.6087614290087207 -0.0
  outer loop
    vertex 155.31617264595835 9.661262258323541 -0.6999999999999996
    vertex 154.83941677816466 10.282582601883187 1.0000000000000002
    vertex 154.83941677816466 10.282582601883187 -0.6999999999999996
  endloop
endfacet
facet normal 0.0 0.0 1.0
  outer loop
    vertex 155.937492989518 9.184506390529869 1.0000000000000002
    vertex 156.00564133693987 11.76494451167814 1.0000000000000002
    vertex 155.937492989518 12.282582601883183 1.0000000000000002
  endloop
endfacet
facet normal 0.0 0.0 1.0
  outer loop
    vertex 156.00564133693987 11.76494451167814 1.0000000000000002
    vertex 155.937492989518 9.184506390529869 1.0000000000000002
    vertex 156.66103585421044 8.884805123015978 1.0000000000000002
  endloop
endfacet
facet normal 0.0 0.0 1.0
  outer loop
    vertex 156.00564133693987 11.76494451167814 1.0000000000000002
    vertex 156.66103585421044 8.884805123015978 1.0000000000000002
    vertex 156.20544218194914 11.282582601883183 1.0000000000000002
  endloop
endfacet
facet normal 0.0 0.0 1.0
  outer loop
    vertex 156.20544218194914 11.282582601883183 1.0000000000000002
    vertex 156.66103585421044 8.884805123015978 1.0000000000000002
    vertex 156.5232794271449 10.868369039510089 1.0000000000000002
  endloop
endfacet
facet normal 0.0 0.0 1.0
  outer loop
    vertex 156.5232794271449 10.868369039510089 1.0000000000000002
    vertex 156.66103585421044 8.884805123015978 1.0000000000000002
    vertex 156.937492989518 10.550531794314306 1.0000000000000002
  endloop
endfacet
facet normal 0.0 0.0 1.0
  outer loop
    vertex 156.937492989518 10.550531794314306 1.0000000000000002
    vertex 156.66103585421044 8.884805123015978 1.0000000000000002
    vertex 157.437492989518 8.782582601883183 1.0000000000000002
  endloop
endfacet
facet normal 0.0 0.0 1.0
  outer loop
    vertex 156.937492989518 10.550531794314306 1.0000000000000002
    vertex 157.437492989518 8.782582601883183 1.0000000000000002
    vertex 157.41985489931295 10.35073094930505 1.0000000000000002
  endloop
endfacet
facet normal 0.0 0.0 1.0
  outer loop
    vertex 157.41985489931295 10.35073094930505 1.0000000000000002
    vertex 157.437492989518 8.782582601883183 1.0000000000000002
    vertex 157.937492989518 10.282582601883187 1.0000000000000002
  endloop
endfacet
facet normal 0.0 0.0 1.0
  outer loop
    vertex 157.937492989518 10.282582601883187 1.0000000000000002
    vertex 157.437492989518 8.782582601883183 1.0000000000000002
    vertex 170.437492989518 8.782582601883183 1.0000000000000002
  endloop
endfacet
facet normal 0.0 0.0 1.0
  outer loop
    vertex 157.937492989518 10.282582601883187 1.0000000000000002
    vertex 170.437492989518 8.782582601883183 1.0000000000000002
    vertex 169.93749298951803 10.282582601883183 1.0000000000000009
  endloop
endfacet
facet normal 0.0 0.0 1.0
  outer loop
    vertex 169.93749298951803 10.282582601883183 1.0000000000000009
    vertex 170.437492989518 8.782582601883183 1.0000000000000002
    vertex 170.45513107972306 10.350730949305047 1.0000000000000009
  endloop
endfacet
facet normal 0.0 0.0 1.0
  outer loop
    vertex 170.45513107972306 10.350730949305047 1.0000000000000009
    vertex 170.437492989518 8.782582601883183 1.0000000000000002
    vertex 171.21395012482557 8.884805123015978 1.0000000000000002
  endloop
endfacet
facet normal 0.0 0.0 1.0
  outer loop
    vertex 170.45513107972306 10.350730949305047 1.0000000000000009
    vertex 171.21395012482557 8.884805123015978 1.0000000000000002
    vertex 170.937492989518 10.550531794314306 1.0000000000000009
  endloop
endfacet
facet normal 0.0 0.0 1.0
  outer loop
    vertex 170.937492989518 10.550531794314306 1.0000000000000009
    vertex 171.21395012482557 8.884805123015978 1.0000000000000002
    vertex 171.3517065518911 10.868369039510089 1.0000000000000009
  endloop
endfacet
facet normal 0.0 0.0 1.0
  outer loop
    vertex 171.3517065518911 10.868369039510089 1.0000000000000009
    vertex 171.21395012482557 8.884805123015978 1.0000000000000002
    vertex 171.937492989518 9.184506390529867 1.0000000000000002
  endloop
endfacet
facet normal 0.0 0.0 1.0
  outer loop
    vertex 171.3517065518911 10.868369039510089 1.0000000000000009
    vertex 171.937492989518 9.184506390529867 1.0000000000000002
    vertex 171.66954379708687 11.282582601883185 1.0000000000000009
  endloop
endfacet
facet normal 0.0 0.0 1.0
  outer loop
    vertex 171.66954379708687 11.282582601883185 1.0000000000000009
    vertex 171.937492989518 9.184506390529867 1.0000000000000002
    vertex 171.86934464209617 11.764944511678143 1.0000000000000009
  endloop
endfacet
facet normal 0.0 0.0 1.0
  outer loop
    vertex 171.86934464209617 11.764944511678143 1.0000000000000009
    vertex 171.937492989518 9.184506390529867 1.0000000000000002
    vertex 171.937492989518 12.282582601883183 1.0000000000000009
  endloop
endfacet
facet normal 0.0 0.0 1.0
  outer loop
    vertex 171.937492989518 12.282582601883183 1.0000000000000009
    vertex 171.937492989518 9.184506390529867 1.0000000000000002
    vertex 172.55881333307767 9.661262258323541 1.0000000000000002
  endloop
endfacet
facet normal 0.0 0.0 1.0
  outer loop
    vertex 171.937492989518 12.282582601883183 1.0000000000000009
    vertex 172.55881333307767 9.661262258323541 1.0000000000000002
    vertex 171.937492989518 24.282582601883185 1.0000000000000002
  endloop
endfacet
facet normal 0.0 0.0 1.0
  outer loop
    vertex 171.937492989518 24.282582601883185 1.0000000000000002
    vertex 172.55881333307767 9.661262258323541 1.0000000000000002
    vertex 171.937492989518 27.3806588132365 1.0000000000000002
  endloop
endfacet
facet normal 0.0 0.0 1.0
  outer loop
    vertex 171.937492989518 27.3806588132365 1.0000000000000002
    vertex 172.55881333307767 9.661262258323541 1.0000000000000002
    vertex 172.55881333307767 26.903902945442823 1.0000000000000002
  endloop
endfacet
facet normal 0.0 0.0 1.0
  outer loop
    vertex 172.55881333307767 26.903902945442823 1.0000000000000002
    vertex 172.55881333307767 9.661262258323541 1.0000000000000002
    vertex 173.03556920087135 10.282582601883183 1.0000000000000002
  endloop
endfacet
facet normal 0.0 0.0 1.0
  outer loop
    vertex 172.55881333307767 26.903902945442823 1.0000000000000002
    vertex 173.03556920087135 10.282582601883183 1.0000000000000002
    vertex 173.03556920087135 26.282582601883178 1.0000000000000002
  endloop
endfacet
facet normal 0.0 0.0 1.0
  outer loop
    vertex 173.03556920087135 26.282582601883178 1.0000000000000002
    vertex 173.03556920087135 10.282582601883183 1.0000000000000002
    vertex 173.33527046838523 11.00612546657562 1.0000000000000002
  endloop
endfacet
facet normal 0.0 0.0 1.0
  outer loop
    vertex 173.03556920087135 26.282582601883178 1.0000000000000002
    vertex 173.33527046838523 11.00612546657562 1.0000000000000002
    vertex 173.33527046838523 25.559039737190744 1.0000000000000002
  endloop
endfacet
facet normal 0.0 0.0 1.0
  outer loop
    vertex 173.33527046838523 25.559039737190744 1.0000000000000002
    vertex 173.33527046838523 11.00612546657562 1.0000000000000002
    vertex 173.437492989518 11.782582601883183 1.0000000000000002
  endloop
endfacet
facet normal 0.0 0.0 1.0
  outer loop
    vertex 173.33527046838523 25.559039737190744 1.0000000000000002
    vertex 173.437492989518 11.782582601883183 1.0000000000000002
    vertex 173.437492989518 24.78258260188318 1.0000000000000002
  endloop
endfacet
facet normal 0.0 0.0 1.0
  outer loop
    vertex 154.53971551065078 11.006125466575622 1.0000000000000002
    vertex 154.437492989518 24.78258260188318 1.0000000000000002
    vertex 154.437492989518 11.782582601883183 1.0000000000000002
  endloop
endfacet
facet normal 0.0 0.0 1.0
  outer loop
    vertex 154.437492989518 24.78258260188318 1.0000000000000002
    vertex 154.53971551065078 11.006125466575622 1.0000000000000002
    vertex 154.53971551065078 25.559039737190744 1.0000000000000002
  endloop
endfacet
facet normal 0.0 0.0 1.0
  outer loop
    vertex 154.53971551065078 25.559039737190744 1.0000000000000002
    vertex 154.53971551065078 11.006125466575622 1.0000000000000002
    vertex 154.83941677816466 10.282582601883187 1.0000000000000002
  endloop
endfacet
facet normal 0.0 0.0 1.0
  outer loop
    vertex 154.53971551065078 25.559039737190744 1.0000000000000002
    vertex 154.83941677816466 10.282582601883187 1.0000000000000002
    vertex 154.83941677816466 26.282582601883185 1.0000000000000002
  endloop
endfacet
facet normal 0.0 0.0 1.0
  outer loop
    vertex 154.83941677816466 26.282582601883185 1.0000000000000002
    vertex 154.83941677816466 10.282582601883187 1.0000000000000002
    vertex 155.31617264595835 9.661262258323541 1.0000000000000002
  endloop
endfacet
facet normal 0.0 0.0 1.0
  outer loop
    vertex 154.83941677816466 26.282582601883185 1.0000000000000002
    vertex 155.31617264595835 9.661262258323541 1.0000000000000002
    vertex 155.31617264595835 26.903902945442823 1.0000000000000002
  endloop
endfacet
facet normal 0.0 0.0 1.0
  outer loop
    vertex 155.31617264595835 26.903902945442823 1.0000000000000002
    vertex 155.31617264595835 9.661262258323541 1.0000000000000002
    vertex 155.937492989518 9.184506390529869 1.0000000000000002
  endloop
endfacet
facet normal 0.0 0.0 1.0
  outer loop
    vertex 155.31617264595835 26.903902945442823 1.0000000000000002
    vertex 155.937492989518 9.184506390529869 1.0000000000000002
    vertex 155.937492989518 27.3806588132365 1.0000000000000002
  endloop
endfacet
facet normal 0.0 0.0 1.0
  outer loop
    vertex 155.937492989518 27.3806588132365 1.0000000000000002
    vertex 155.937492989518 9.184506390529869 1.0000000000000002
    vertex 155.937492989518 12.282582601883183 1.0000000000000002
  endloop
endfacet
facet normal 0.0 0.0 1.0
  outer loop
    vertex 155.937492989518 27.3806588132365 1.0000000000000002
    vertex 155.937492989518 12.282582601883183 1.0000000000000002
    vertex 155.937492989518 24.282582601883185 1.0000000000000002
  endloop
endfacet
facet normal 0.0 0.0 1.0
  outer loop
    vertex 155.937492989518 27.3806588132365 1.0000000000000002
    vertex 155.937492989518 24.282582601883185 1.0000000000000002
    vertex 156.00564133693985 24.800220692088224 1.0000000000000002
  endloop
endfacet
facet normal 0.0 0.0 1.0
  outer loop
    vertex 155.937492989518 27.3806588132365 1.0000000000000002
    vertex 156.00564133693985 24.800220692088224 1.0000000000000002
    vertex 156.66103585421044 27.680360080750386 1.0000000000000002
  endloop
endfacet
facet normal 0.0 0.0 1.0
  outer loop
    vertex 156.66103585421044 27.680360080750386 1.0000000000000002
    vertex 156.00564133693985 24.800220692088224 1.0000000000000002
    vertex 156.20544218194914 25.282582601883185 1.0000000000000002
  endloop
endfacet
facet normal 0.0 0.0 1.0
  outer loop
    vertex 156.66103585421044 27.680360080750386 1.0000000000000002
    vertex 156.20544218194914 25.282582601883185 1.0000000000000002
    vertex 156.5232794271449 25.69679616425628 1.0000000000000002
  endloop
endfacet
facet normal 0.0 0.0 1.0
  outer loop
    vertex 156.66103585421044 27.680360080750386 1.0000000000000002
    vertex 156.5232794271449 25.69679616425628 1.0000000000000002
    vertex 156.937492989518 26.01463340945206 1.0000000000000002
  endloop
endfacet
facet normal 0.0 0.0 1.0
  outer loop
    vertex 156.66103585421044 27.680360080750386 1.0000000000000002
    vertex 156.937492989518 26.01463340945206 1.0000000000000002
    vertex 157.437492989518 27.78258260188318 1.0000000000000002
  endloop
endfacet
facet normal 0.0 0.0 1.0
  outer loop
    vertex 157.437492989518 27.78258260188318 1.0000000000000002
    vertex 156.937492989518 26.01463340945206 1.0000000000000002
    vertex 157.41985489931295 26.21443425446132 1.0000000000000002
  endloop
endfacet
facet normal 0.0 0.0 1.0
  outer loop
    vertex 157.437492989518 27.78258260188318 1.0000000000000002
    vertex 157.41985489931295 26.21443425446132 1.0000000000000002
    vertex 157.937492989518 26.282582601883185 1.0000000000000002
  endloop
endfacet
facet normal 0.0 0.0 1.0
  outer loop
    vertex 157.437492989518 27.78258260188318 1.0000000000000002
    vertex 157.937492989518 26.282582601883185 1.0000000000000002
    vertex 170.437492989518 27.78258260188318 1.0000000000000002
  endloop
endfacet
facet normal 0.0 0.0 1.0
  outer loop
    vertex 170.437492989518 27.78258260188318 1.0000000000000002
    vertex 157.937492989518 26.282582601883185 1.0000000000000002
    vertex 169.93749298951803 26.282582601883185 1.0000000000000002
  endloop
endfacet
facet normal 0.0 0.0 1.0
  outer loop
    vertex 170.437492989518 27.78258260188318 1.0000000000000002
    vertex 169.93749298951803 26.282582601883185 1.0000000000000002
    vertex 170.45513107972306 26.21443425446132 1.0000000000000002
  endloop
endfacet
facet normal 0.0 0.0 1.0
  outer loop
    vertex 170.437492989518 27.78258260188318 1.0000000000000002
    vertex 170.45513107972306 26.21443425446132 1.0000000000000002
    vertex 171.21395012482557 27.680360080750386 1.0000000000000002
  endloop
endfacet
facet normal 0.0 0.0 1.0
  outer loop
    vertex 171.21395012482557 27.680360080750386 1.0000000000000002
    vertex 170.45513107972306 26.21443425446132 1.0000000000000002
    vertex 170.937492989518 26.01463340945206 1.0000000000000002
  endloop
endfacet
facet normal 0.0 0.0 1.0
  outer loop
    vertex 171.21395012482557 27.680360080750386 1.0000000000000002
    vertex 170.937492989518 26.01463340945206 1.0000000000000002
    vertex 171.3517065518911 25.69679616425628 1.0000000000000002
  endloop
endfacet
facet normal 0.0 0.0 1.0
  outer loop
    vertex 171.21395012482557 27.680360080750386 1.0000000000000002
    vertex 171.3517065518911 25.69679616425628 1.0000000000000002
    vertex 171.937492989518 27.3806588132365 1.0000000000000002
  endloop
endfacet
facet normal 0.0 0.0 1.0
  outer loop
    vertex 171.937492989518 27.3806588132365 1.0000000000000002
    vertex 171.3517065518911 25.69679616425628 1.0000000000000002
    vertex 171.66954379708687 25.28258260188319 1.0000000000000002
  endloop
endfacet
facet normal 0.0 0.0 1.0
  outer loop
    vertex 171.937492989518 27.3806588132365 1.0000000000000002
    vertex 171.66954379708687 25.28258260188319 1.0000000000000002
    vertex 171.86934464209617 24.800220692088228 1.0000000000000002
  endloop
endfacet
facet normal 0.0 0.0 1.0
  outer loop
    vertex 171.937492989518 27.3806588132365 1.0000000000000002
    vertex 171.86934464209617 24.800220692088228 1.0000000000000002
    vertex 171.937492989518 24.282582601883185 1.0000000000000002
  endloop
endfacet
facet normal -0.13052619222005263 0.9914448613738104 0.0
  outer loop
    vertex 156.66103585421044 27.680360080750386 1.0000000000000002
    vertex 157.437492989518 27.78258260188318 -0.6999999999999996
    vertex 156.66103585421044 27.680360080750386 -0.6999999999999996
  endloop
endfacet
facet normal -0.13052619222005263 0.9914448613738104 0.0
  outer loop
    vertex 157.437492989518 27.78258260188318 -0.6999999999999996
    vertex 156.66103585421044 27.680360080750386 1.0000000000000002
    vertex 157.437492989518 27.78258260188318 1.0000000000000002
  endloop
endfacet
facet normal -0.38268343236508695 0.923879532511288 0.0
  outer loop
    vertex 155.937492989518 27.3806588132365 1.0000000000000002
    vertex 156.66103585421044 27.680360080750386 -0.6999999999999996
    vertex 155.937492989518 27.3806588132365 -0.6999999999999996
  endloop
endfacet
facet normal -0.38268343236508695 0.923879532511288 0.0
  outer loop
    vertex 156.66103585421044 27.680360080750386 -0.6999999999999996
    vertex 155.937492989518 27.3806588132365 1.0000000000000002
    vertex 156.66103585421044 27.680360080750386 1.0000000000000002
  endloop
endfacet
facet normal -0.6087614290087172 0.7933533402912378 0.0
  outer loop
    vertex 155.31617264595835 26.903902945442823 1.0000000000000002
    vertex 155.937492989518 27.3806588132365 -0.6999999999999996
    vertex 155.31617264595835 26.903902945442823 -0.6999999999999996
  endloop
endfacet
facet normal -0.6087614290087172 0.7933533402912378 0.0
  outer loop
    vertex 155.937492989518 27.3806588132365 -0.6999999999999996
    vertex 155.31617264595835 26.903902945442823 1.0000000000000002
    vertex 155.937492989518 27.3806588132365 1.0000000000000002
  endloop
endfacet
facet normal -0.38268343236509006 -0.9238795325112867 -0.0
  outer loop
    vertex 156.66103585421044 8.884805123015978 1.0000000000000002
    vertex 155.937492989518 9.184506390529869 -0.6999999999999996
    vertex 156.66103585421044 8.884805123015978 -0.6999999999999996
  endloop
endfacet
facet normal -0.38268343236509006 -0.9238795325112867 -0.0
  outer loop
    vertex 155.937492989518 9.184506390529869 -0.6999999999999996
    vertex 156.66103585421044 8.884805123015978 1.0000000000000002
    vertex 155.937492989518 9.184506390529869 1.0000000000000002
  endloop
endfacet
facet normal -0.9238795325112896 -0.3826834323650827 -0.0
  outer loop
    vertex 154.53971551065078 11.006125466575622 1.0000000000000002
    vertex 154.83941677816466 10.282582601883187 -0.6999999999999996
    vertex 154.83941677816466 10.282582601883187 1.0000000000000002
  endloop
endfacet
facet normal -0.9238795325112896 -0.3826834323650827 -0.0
  outer loop
    vertex 154.83941677816466 10.282582601883187 -0.6999999999999996
    vertex 154.53971551065078 11.006125466575622 1.0000000000000002
    vertex 154.53971551065078 11.006125466575622 -0.6999999999999996
  endloop
endfacet
facet normal -0.13052619222005263 -0.9914448613738104 -0.0
  outer loop
    vertex 157.437492989518 8.782582601883183 1.0000000000000002
    vertex 156.66103585421044 8.884805123015978 -0.6999999999999996
    vertex 157.437492989518 8.782582601883183 -0.6999999999999996
  endloop
endfacet
facet normal -0.13052619222005263 -0.9914448613738104 -0.0
  outer loop
    vertex 156.66103585421044 8.884805123015978 -0.6999999999999996
    vertex 157.437492989518 8.782582601883183 1.0000000000000002
    vertex 156.66103585421044 8.884805123015978 1.0000000000000002
  endloop
endfacet
facet normal 0.7933533402912337 -0.6087614290087224 0.0
  outer loop
    vertex 173.03556920087135 10.282582601883183 -0.6999999999999996
    vertex 172.55881333307767 9.661262258323541 1.0000000000000002
    vertex 172.55881333307767 9.661262258323541 -0.6999999999999996
  endloop
endfacet
facet normal 0.7933533402912337 -0.6087614290087224 0.0
  outer loop
    vertex 172.55881333307767 9.661262258323541 1.0000000000000002
    vertex 173.03556920087135 10.282582601883183 -0.6999999999999996
    vertex 173.03556920087135 10.282582601883183 1.0000000000000002
  endloop
endfacet
facet normal 0.6087614290087161 -0.7933533402912386 0.0
  outer loop
    vertex 172.55881333307767 9.661262258323541 1.0000000000000002
    vertex 171.937492989518 9.184506390529867 -0.6999999999999996
    vertex 172.55881333307767 9.661262258323541 -0.6999999999999996
  endloop
endfacet
facet normal 0.6087614290087161 -0.7933533402912386 0.0
  outer loop
    vertex 171.937492989518 9.184506390529867 -0.6999999999999996
    vertex 172.55881333307767 9.661262258323541 1.0000000000000002
    vertex 171.937492989518 9.184506390529867 1.0000000000000002
  endloop
endfacet
facet normal 0.9914448613738114 -0.1305261922200446 0.0
  outer loop
    vertex 173.437492989518 11.782582601883183 -0.6999999999999996
    vertex 173.33527046838523 11.00612546657562 1.0000000000000002
    vertex 173.33527046838523 11.00612546657562 -0.6999999999999996
  endloop
endfacet
facet normal 0.9914448613738114 -0.1305261922200446 0.0
  outer loop
    vertex 173.33527046838523 11.00612546657562 1.0000000000000002
    vertex 173.437492989518 11.782582601883183 -0.6999999999999996
    vertex 173.437492989518 11.782582601883183 1.0000000000000002
  endloop
endfacet
facet normal 0.3826834323650885 -0.9238795325112873 0.0
  outer loop
    vertex 171.937492989518 9.184506390529867 1.0000000000000002
    vertex 171.21395012482557 8.884805123015978 -0.6999999999999996
    vertex 171.937492989518 9.184506390529867 -0.6999999999999996
  endloop
endfacet
facet normal 0.3826834323650885 -0.9238795325112873 0.0
  outer loop
    vertex 171.21395012482557 8.884805123015978 -0.6999999999999996
    vertex 171.937492989518 9.184506390529867 1.0000000000000002
    vertex 171.21395012482557 8.884805123015978 1.0000000000000002
  endloop
endfacet
facet normal 0.9238795325112894 0.38268343236508334 0.0
  outer loop
    vertex 173.03556920087135 26.282582601883178 -0.6999999999999996
    vertex 173.33527046838523 25.559039737190744 1.0000000000000002
    vertex 173.33527046838523 25.559039737190744 -0.6999999999999996
  endloop
endfacet
facet normal 0.9238795325112894 0.38268343236508334 0.0
  outer loop
    vertex 173.33527046838523 25.559039737190744 1.0000000000000002
    vertex 173.03556920087135 26.282582601883178 -0.6999999999999996
    vertex 173.03556920087135 26.282582601883178 1.0000000000000002
  endloop
endfacet
facet normal 1.0 0.0 0.0
  outer loop
    vertex 173.437492989518 24.78258260188318 -0.6999999999999996
    vertex 173.437492989518 11.782582601883183 1.0000000000000002
    vertex 173.437492989518 11.782582601883183 -0.6999999999999996
  endloop
endfacet
facet normal 1.0 0.0 0.0
  outer loop
    vertex 173.437492989518 11.782582601883183 1.0000000000000002
    vertex 173.437492989518 24.78258260188318 -0.6999999999999996
    vertex 173.437492989518 24.78258260188318 1.0000000000000002
  endloop
endfacet
facet normal 0.793353340291235 0.6087614290087207 0.0
  outer loop
    vertex 172.55881333307767 26.903902945442823 -0.6999999999999996
    vertex 173.03556920087135 26.282582601883178 1.0000000000000002
    vertex 173.03556920087135 26.282582601883178 -0.6999999999999996
  endloop
endfacet
facet normal 0.793353340291235 0.6087614290087207 0.0
  outer loop
    vertex 173.03556920087135 26.282582601883178 1.0000000000000002
    vertex 172.55881333307767 26.903902945442823 -0.6999999999999996
    vertex 172.55881333307767 26.903902945442823 1.0000000000000002
  endloop
endfacet
facet normal 0.6087614290087172 0.7933533402912378 0.0
  outer loop
    vertex 171.937492989518 27.3806588132365 1.0000000000000002
    vertex 172.55881333307767 26.903902945442823 -0.6999999999999996
    vertex 171.937492989518 27.3806588132365 -0.6999999999999996
  endloop
endfacet
facet normal 0.6087614290087172 0.7933533402912378 0.0
  outer loop
    vertex 172.55881333307767 26.903902945442823 -0.6999999999999996
    vertex 171.937492989518 27.3806588132365 1.0000000000000002
    vertex 172.55881333307767 26.903902945442823 1.0000000000000002
  endloop
endfacet
facet normal 0.38268343236508695 0.923879532511288 0.0
  outer loop
    vertex 171.21395012482557 27.680360080750386 1.0000000000000002
    vertex 171.937492989518 27.3806588132365 -0.6999999999999996
    vertex 171.21395012482557 27.680360080750386 -0.6999999999999996
  endloop
endfacet
facet normal 0.38268343236508695 0.923879532511288 0.0
  outer loop
    vertex 171.937492989518 27.3806588132365 -0.6999999999999996
    vertex 171.21395012482557 27.680360080750386 1.0000000000000002
    vertex 171.937492989518 27.3806588132365 1.0000000000000002
  endloop
endfacet
facet normal 0.92387953251129 -0.3826834323650821 0.0
  outer loop
    vertex 173.33527046838523 11.00612546657562 -0.6999999999999996
    vertex 173.03556920087135 10.282582601883183 1.0000000000000002
    vertex 173.03556920087135 10.282582601883183 -0.6999999999999996
  endloop
endfacet
facet normal 0.92387953251129 -0.3826834323650821 0.0
  outer loop
    vertex 173.03556920087135 10.282582601883183 1.0000000000000002
    vertex 173.33527046838523 11.00612546657562 -0.6999999999999996
    vertex 173.33527046838523 11.00612546657562 1.0000000000000002
  endloop
endfacet
facet normal 0.13052619222005263 0.9914448613738104 0.0
  outer loop
    vertex 170.437492989518 27.78258260188318 1.0000000000000002
    vertex 171.21395012482557 27.680360080750386 -0.6999999999999996
    vertex 170.437492989518 27.78258260188318 -0.6999999999999996
  endloop
endfacet
facet normal 0.13052619222005263 0.9914448613738104 0.0
  outer loop
    vertex 171.21395012482557 27.680360080750386 -0.6999999999999996
    vertex 170.437492989518 27.78258260188318 1.0000000000000002
    vertex 171.21395012482557 27.680360080750386 1.0000000000000002
  endloop
endfacet
facet normal 0.9914448613738114 0.1305261922200446 0.0
  outer loop
    vertex 173.33527046838523 25.559039737190744 -0.6999999999999996
    vertex 173.437492989518 24.78258260188318 1.0000000000000002
    vertex 173.437492989518 24.78258260188318 -0.6999999999999996
  endloop
endfacet
facet normal 0.9914448613738114 0.1305261922200446 0.0
  outer loop
    vertex 173.437492989518 24.78258260188318 1.0000000000000002
    vertex 173.33527046838523 25.559039737190744 -0.6999999999999996
    vertex 173.33527046838523 25.559039737190744 1.0000000000000002
  endloop
endfacet
facet normal 0.0 1.0 0.0
  outer loop
    vertex 157.437492989518 27.78258260188318 1.0000000000000002
    vertex 170.437492989518 27.78258260188318 -0.6999999999999996
    vertex 157.437492989518 27.78258260188318 -0.6999999999999996
  endloop
endfacet
facet normal 0.0 1.0 0.0
  outer loop
    vertex 170.437492989518 27.78258260188318 -0.6999999999999996
    vertex 157.437492989518 27.78258260188318 1.0000000000000002
    vertex 170.437492989518 27.78258260188318 1.0000000000000002
  endloop
endfacet
facet normal 0.13052619222005263 -0.9914448613738104 0.0
  outer loop
    vertex 171.21395012482557 8.884805123015978 1.0000000000000002
    vertex 170.437492989518 8.782582601883183 -0.6999999999999996
    vertex 171.21395012482557 8.884805123015978 -0.6999999999999996
  endloop
endfacet
facet normal 0.13052619222005263 -0.9914448613738104 0.0
  outer loop
    vertex 170.437492989518 8.782582601883183 -0.6999999999999996
    vertex 171.21395012482557 8.884805123015978 1.0000000000000002
    vertex 170.437492989518 8.782582601883183 1.0000000000000002
  endloop
endfacet
facet normal -2.415662640322795e-17 2.4156626403227992e-17 1.0
  outer loop
    vertex 156.00564133693987 11.76494451167814 1.0000000000000002
    vertex 156.1022339195688 11.790826416188395 1.0000000000000002
    vertex 156.037492989518 12.282582601883183 1.0000000000000002
  endloop
endfacet
facet normal -2.415662640322795e-17 2.4156626403227992e-17 1.0
  outer loop
    vertex 156.1022339195688 11.790826416188395 1.0000000000000002
    vertex 156.00564133693987 11.76494451167814 1.0000000000000002
    vertex 156.20544218194914 11.282582601883183 1.0000000000000002
  endloop
endfacet
facet normal -2.415662640322795e-17 2.4156626403227992e-17 1.0
  outer loop
    vertex 156.1022339195688 11.790826416188395 1.0000000000000002
    vertex 156.20544218194914 11.282582601883183 1.0000000000000002
    vertex 156.29204472232757 11.332582601883184 1.0000000000000002
  endloop
endfacet
facet normal -2.415662640322795e-17 2.4156626403227992e-17 1.0
  outer loop
    vertex 156.29204472232757 11.332582601883184 1.0000000000000002
    vertex 156.20544218194914 11.282582601883183 1.0000000000000002
    vertex 156.5232794271449 10.868369039510089 1.0000000000000002
  endloop
endfacet
facet normal -2.415662640322795e-17 2.4156626403227992e-17 1.0
  outer loop
    vertex 156.29204472232757 11.332582601883184 1.0000000000000002
    vertex 156.5232794271449 10.868369039510089 1.0000000000000002
    vertex 156.59399010526357 10.939079717628744 1.0000000000000002
  endloop
endfacet
facet normal -2.415662640322795e-17 2.4156626403227992e-17 1.0
  outer loop
    vertex 156.59399010526357 10.939079717628744 1.0000000000000002
    vertex 156.5232794271449 10.868369039510089 1.0000000000000002
    vertex 156.937492989518 10.550531794314306 1.0000000000000002
  endloop
endfacet
facet normal -2.415662640322795e-17 2.4156626403227992e-17 1.0
  outer loop
    vertex 156.59399010526357 10.939079717628744 1.0000000000000002
    vertex 156.937492989518 10.550531794314306 1.0000000000000002
    vertex 156.987492989518 10.637134334692753 1.0000000000000002
  endloop
endfacet
facet normal -2.415662640322795e-17 2.4156626403227992e-17 1.0
  outer loop
    vertex 156.987492989518 10.637134334692753 1.0000000000000002
    vertex 156.937492989518 10.550531794314306 1.0000000000000002
    vertex 157.41985489931295 10.35073094930505 1.0000000000000002
  endloop
endfacet
facet normal -2.415662640322795e-17 2.4156626403227992e-17 1.0
  outer loop
    vertex 156.987492989518 10.637134334692753 1.0000000000000002
    vertex 157.41985489931295 10.35073094930505 1.0000000000000002
    vertex 157.4457368038232 10.447323531933955 1.0000000000000002
  endloop
endfacet
facet normal -2.415662640322795e-17 2.4156626403227992e-17 1.0
  outer loop
    vertex 157.4457368038232 10.447323531933955 1.0000000000000002
    vertex 157.41985489931295 10.35073094930505 1.0000000000000002
    vertex 157.937492989518 10.282582601883187 1.0000000000000002
  endloop
endfacet
facet normal -2.415662640322795e-17 2.4156626403227992e-17 1.0
  outer loop
    vertex 157.4457368038232 10.447323531933955 1.0000000000000002
    vertex 157.937492989518 10.282582601883187 1.0000000000000002
    vertex 157.937492989518 10.382582601883186 1.0000000000000002
  endloop
endfacet
facet normal -2.415662640322795e-17 2.4156626403227992e-17 1.0
  outer loop
    vertex 157.937492989518 10.382582601883186 1.0000000000000002
    vertex 157.937492989518 10.282582601883187 1.0000000000000002
    vertex 169.93749298951803 10.282582601883183 1.0000000000000009
  endloop
endfacet
facet normal -2.415662640322795e-17 2.4156626403227992e-17 1.0
  outer loop
    vertex 157.937492989518 10.382582601883186 1.0000000000000002
    vertex 169.93749298951803 10.282582601883183 1.0000000000000009
    vertex 169.93749298951803 10.382582601883183 1.0000000000000009
  endloop
endfacet
facet normal -2.415662640322795e-17 2.4156626403227992e-17 1.0
  outer loop
    vertex 169.93749298951803 10.382582601883183 1.0000000000000009
    vertex 169.93749298951803 10.282582601883183 1.0000000000000009
    vertex 170.45513107972306 10.350730949305047 1.0000000000000009
  endloop
endfacet
facet normal -2.415662640322795e-17 2.4156626403227992e-17 1.0
  outer loop
    vertex 169.93749298951803 10.382582601883183 1.0000000000000009
    vertex 170.45513107972306 10.350730949305047 1.0000000000000009
    vertex 170.42924917521282 10.447323531933954 1.0000000000000009
  endloop
endfacet
facet normal -2.415662640322795e-17 2.4156626403227992e-17 1.0
  outer loop
    vertex 170.42924917521282 10.447323531933954 1.0000000000000009
    vertex 170.45513107972306 10.350730949305047 1.0000000000000009
    vertex 170.88749298951802 10.63713433469275 1.0000000000000009
  endloop
endfacet
facet normal -2.415662640322795e-17 2.4156626403227992e-17 1.0
  outer loop
    vertex 170.88749298951802 10.63713433469275 1.0000000000000009
    vertex 170.45513107972306 10.350730949305047 1.0000000000000009
    vertex 170.937492989518 10.550531794314306 1.0000000000000009
  endloop
endfacet
facet normal -2.415662640322795e-17 2.4156626403227992e-17 1.0
  outer loop
    vertex 170.88749298951802 10.63713433469275 1.0000000000000009
    vertex 170.937492989518 10.550531794314306 1.0000000000000009
    vertex 171.28099587377244 10.939079717628742 1.0000000000000009
  endloop
endfacet
facet normal -2.415662640322795e-17 2.4156626403227992e-17 1.0
  outer loop
    vertex 171.28099587377244 10.939079717628742 1.0000000000000009
    vertex 170.937492989518 10.550531794314306 1.0000000000000009
    vertex 171.3517065518911 10.868369039510089 1.0000000000000009
  endloop
endfacet
facet normal -2.415662640322795e-17 2.4156626403227992e-17 1.0
  outer loop
    vertex 171.28099587377244 10.939079717628742 1.0000000000000009
    vertex 171.3517065518911 10.868369039510089 1.0000000000000009
    vertex 171.58294125670847 11.332582601883182 1.0000000000000009
  endloop
endfacet
facet normal -2.415662640322795e-17 2.4156626403227992e-17 1.0
  outer loop
    vertex 171.58294125670847 11.332582601883182 1.0000000000000009
    vertex 171.3517065518911 10.868369039510089 1.0000000000000009
    vertex 171.66954379708687 11.282582601883185 1.0000000000000009
  endloop
endfacet
facet normal -2.415662640322795e-17 2.4156626403227992e-17 1.0
  outer loop
    vertex 171.58294125670847 11.332582601883182 1.0000000000000009
    vertex 171.66954379708687 11.282582601883185 1.0000000000000009
    vertex 171.77275205946725 11.790826416188393 1.0000000000000009
  endloop
endfacet
facet normal -2.415662640322795e-17 2.4156626403227992e-17 1.0
  outer loop
    vertex 171.77275205946725 11.790826416188393 1.0000000000000009
    vertex 171.66954379708687 11.282582601883185 1.0000000000000009
    vertex 171.86934464209617 11.764944511678143 1.0000000000000009
  endloop
endfacet
facet normal -2.415662640322795e-17 2.4156626403227992e-17 1.0
  outer loop
    vertex 171.77275205946725 11.790826416188393 1.0000000000000009
    vertex 171.86934464209617 11.764944511678143 1.0000000000000009
    vertex 171.837492989518 12.282582601883183 1.0000000000000009
  endloop
endfacet
facet normal -2.415662640322795e-17 2.4156626403227992e-17 1.0
  outer loop
    vertex 171.837492989518 12.282582601883183 1.0000000000000009
    vertex 171.86934464209617 11.764944511678143 1.0000000000000009
    vertex 171.837492989518 24.282582601883185 1.0000000000000002
  endloop
endfacet
facet normal -2.415662640322795e-17 2.4156626403227992e-17 1.0
  outer loop
    vertex 156.00564133693987 11.76494451167814 1.0000000000000002
    vertex 155.937492989518 24.282582601883185 1.0000000000000002
    vertex 155.937492989518 12.282582601883183 1.0000000000000002
  endloop
endfacet
facet normal -2.415662640322795e-17 2.4156626403227992e-17 1.0
  outer loop
    vertex 155.937492989518 24.282582601883185 1.0000000000000002
    vertex 156.00564133693987 11.76494451167814 1.0000000000000002
    vertex 156.00564133693985 24.800220692088224 1.0000000000000002
  endloop
endfacet
facet normal -2.415662640322795e-17 2.4156626403227992e-17 1.0
  outer loop
    vertex 156.00564133693985 24.800220692088224 1.0000000000000002
    vertex 156.00564133693987 11.76494451167814 1.0000000000000002
    vertex 156.037492989518 24.282582601883185 1.0000000000000002
  endloop
endfacet
facet normal -2.415662640322795e-17 2.4156626403227992e-17 1.0
  outer loop
    vertex 156.00564133693985 24.800220692088224 1.0000000000000002
    vertex 156.037492989518 24.282582601883185 1.0000000000000002
    vertex 156.1022339195688 24.774338787577975 1.0000000000000002
  endloop
endfacet
facet normal -2.415662640322795e-17 2.4156626403227992e-17 1.0
  outer loop
    vertex 156.00564133693985 24.800220692088224 1.0000000000000002
    vertex 156.1022339195688 24.774338787577975 1.0000000000000002
    vertex 156.20544218194914 25.282582601883185 1.0000000000000002
  endloop
endfacet
facet normal -2.415662640322795e-17 2.4156626403227992e-17 1.0
  outer loop
    vertex 156.037492989518 24.282582601883185 1.0000000000000002
    vertex 156.00564133693987 11.76494451167814 1.0000000000000002
    vertex 156.037492989518 12.282582601883183 1.0000000000000002
  endloop
endfacet
facet normal -2.415662640322795e-17 2.4156626403227992e-17 1.0
  outer loop
    vertex 156.20544218194914 25.282582601883185 1.0000000000000002
    vertex 156.1022339195688 24.774338787577975 1.0000000000000002
    vertex 156.29204472232757 25.232582601883188 1.0000000000000002
  endloop
endfacet
facet normal -2.415662640322795e-17 2.4156626403227992e-17 1.0
  outer loop
    vertex 156.20544218194914 25.282582601883185 1.0000000000000002
    vertex 156.29204472232757 25.232582601883188 1.0000000000000002
    vertex 156.5232794271449 25.69679616425628 1.0000000000000002
  endloop
endfacet
facet normal -2.415662640322795e-17 2.4156626403227992e-17 1.0
  outer loop
    vertex 156.5232794271449 25.69679616425628 1.0000000000000002
    vertex 156.29204472232757 25.232582601883188 1.0000000000000002
    vertex 156.59399010526357 25.626085486137626 1.0000000000000002
  endloop
endfacet
facet normal -2.415662640322795e-17 2.4156626403227992e-17 1.0
  outer loop
    vertex 156.5232794271449 25.69679616425628 1.0000000000000002
    vertex 156.59399010526357 25.626085486137626 1.0000000000000002
    vertex 156.937492989518 26.01463340945206 1.0000000000000002
  endloop
endfacet
facet normal -2.415662640322795e-17 2.4156626403227992e-17 1.0
  outer loop
    vertex 156.937492989518 26.01463340945206 1.0000000000000002
    vertex 156.59399010526357 25.626085486137626 1.0000000000000002
    vertex 156.987492989518 25.92803086907362 1.0000000000000002
  endloop
endfacet
facet normal -2.415662640322795e-17 2.4156626403227992e-17 1.0
  outer loop
    vertex 156.937492989518 26.01463340945206 1.0000000000000002
    vertex 156.987492989518 25.92803086907362 1.0000000000000002
    vertex 157.41985489931295 26.21443425446132 1.0000000000000002
  endloop
endfacet
facet normal -2.415662640322795e-17 2.4156626403227992e-17 1.0
  outer loop
    vertex 157.41985489931295 26.21443425446132 1.0000000000000002
    vertex 156.987492989518 25.92803086907362 1.0000000000000002
    vertex 157.4457368038232 26.117841671832416 1.0000000000000002
  endloop
endfacet
facet normal -2.415662640322795e-17 2.4156626403227992e-17 1.0
  outer loop
    vertex 157.41985489931295 26.21443425446132 1.0000000000000002
    vertex 157.4457368038232 26.117841671832416 1.0000000000000002
    vertex 157.937492989518 26.282582601883185 1.0000000000000002
  endloop
endfacet
facet normal -2.415662640322795e-17 2.4156626403227992e-17 1.0
  outer loop
    vertex 157.937492989518 26.282582601883185 1.0000000000000002
    vertex 157.4457368038232 26.117841671832416 1.0000000000000002
    vertex 157.937492989518 26.182582601883187 1.0000000000000002
  endloop
endfacet
facet normal -2.415662640322795e-17 2.4156626403227992e-17 1.0
  outer loop
    vertex 157.937492989518 26.282582601883185 1.0000000000000002
    vertex 157.937492989518 26.182582601883187 1.0000000000000002
    vertex 169.93749298951803 26.182582601883187 1.0000000000000002
  endloop
endfacet
facet normal -2.415662640322795e-17 2.4156626403227992e-17 1.0
  outer loop
    vertex 157.937492989518 26.282582601883185 1.0000000000000002
    vertex 169.93749298951803 26.182582601883187 1.0000000000000002
    vertex 169.93749298951803 26.282582601883185 1.0000000000000002
  endloop
endfacet
facet normal -2.415662640322795e-17 2.4156626403227992e-17 1.0
  outer loop
    vertex 169.93749298951803 26.282582601883185 1.0000000000000002
    vertex 169.93749298951803 26.182582601883187 1.0000000000000002
    vertex 170.42924917521282 26.117841671832412 1.0000000000000002
  endloop
endfacet
facet normal -2.415662640322795e-17 2.4156626403227992e-17 1.0
  outer loop
    vertex 169.93749298951803 26.282582601883185 1.0000000000000002
    vertex 170.42924917521282 26.117841671832412 1.0000000000000002
    vertex 170.45513107972306 26.21443425446132 1.0000000000000002
  endloop
endfacet
facet normal -2.415662640322795e-17 2.4156626403227992e-17 1.0
  outer loop
    vertex 170.45513107972306 26.21443425446132 1.0000000000000002
    vertex 170.42924917521282 26.117841671832412 1.0000000000000002
    vertex 170.88749298951802 25.928030869073616 1.0000000000000002
  endloop
endfacet
facet normal -2.415662640322795e-17 2.4156626403227992e-17 1.0
  outer loop
    vertex 170.45513107972306 26.21443425446132 1.0000000000000002
    vertex 170.88749298951802 25.928030869073616 1.0000000000000002
    vertex 170.937492989518 26.01463340945206 1.0000000000000002
  endloop
endfacet
facet normal -2.415662640322795e-17 2.4156626403227992e-17 1.0
  outer loop
    vertex 170.937492989518 26.01463340945206 1.0000000000000002
    vertex 170.88749298951802 25.928030869073616 1.0000000000000002
    vertex 171.28099587377244 25.626085486137626 1.0000000000000002
  endloop
endfacet
facet normal -2.415662640322795e-17 2.4156626403227992e-17 1.0
  outer loop
    vertex 170.937492989518 26.01463340945206 1.0000000000000002
    vertex 171.28099587377244 25.626085486137626 1.0000000000000002
    vertex 171.3517065518911 25.69679616425628 1.0000000000000002
  endloop
endfacet
facet normal -2.415662640322795e-17 2.4156626403227992e-17 1.0
  outer loop
    vertex 171.3517065518911 25.69679616425628 1.0000000000000002
    vertex 171.28099587377244 25.626085486137626 1.0000000000000002
    vertex 171.58294125670847 25.232582601883184 1.0000000000000002
  endloop
endfacet
facet normal -2.415662640322795e-17 2.4156626403227992e-17 1.0
  outer loop
    vertex 171.3517065518911 25.69679616425628 1.0000000000000002
    vertex 171.58294125670847 25.232582601883184 1.0000000000000002
    vertex 171.66954379708687 25.28258260188319 1.0000000000000002
  endloop
endfacet
facet normal -2.415662640322795e-17 2.4156626403227992e-17 1.0
  outer loop
    vertex 171.66954379708687 25.28258260188319 1.0000000000000002
    vertex 171.58294125670847 25.232582601883184 1.0000000000000002
    vertex 171.77275205946725 24.774338787577975 1.0000000000000002
  endloop
endfacet
facet normal -2.415662640322795e-17 2.4156626403227992e-17 1.0
  outer loop
    vertex 171.66954379708687 25.28258260188319 1.0000000000000002
    vertex 171.77275205946725 24.774338787577975 1.0000000000000002
    vertex 171.86934464209617 24.800220692088228 1.0000000000000002
  endloop
endfacet
facet normal -2.415662640322795e-17 2.4156626403227992e-17 1.0
  outer loop
    vertex 171.86934464209617 24.800220692088228 1.0000000000000002
    vertex 171.77275205946725 24.774338787577975 1.0000000000000002
    vertex 171.837492989518 24.282582601883185 1.0000000000000002
  endloop
endfacet
facet normal -2.415662640322795e-17 2.4156626403227992e-17 1.0
  outer loop
    vertex 171.86934464209617 24.800220692088228 1.0000000000000002
    vertex 171.837492989518 24.282582601883185 1.0000000000000002
    vertex 171.86934464209617 11.764944511678143 1.0000000000000009
  endloop
endfacet
facet normal -2.415662640322795e-17 2.4156626403227992e-17 1.0
  outer loop
    vertex 171.86934464209617 24.800220692088228 1.0000000000000002
    vertex 171.86934464209617 11.764944511678143 1.0000000000000009
    vertex 171.937492989518 12.282582601883183 1.0000000000000009
  endloop
endfacet
facet normal -2.415662640322795e-17 2.4156626403227992e-17 1.0
  outer loop
    vertex 171.86934464209617 24.800220692088228 1.0000000000000002
    vertex 171.937492989518 12.282582601883183 1.0000000000000009
    vertex 171.937492989518 24.282582601883185 1.0000000000000002
  endloop
endfacet
facet normal -0.3826834323650829 0.9238795325112896 -3.1856923763982714e-17
  outer loop
    vertex 156.987492989518 25.92803086907362 4.5
    vertex 157.4457368038232 26.117841671832416 1.0000000000000002
    vertex 156.987492989518 25.92803086907362 1.0000000000000002
  endloop
endfacet
facet normal -0.3826834323650829 0.9238795325112896 -3.1856923763982714e-17
  outer loop
    vertex 157.4457368038232 26.117841671832416 1.0000000000000002
    vertex 156.987492989518 25.92803086907362 4.5
    vertex 157.4457368038232 26.117841671832416 4.5
  endloop
endfacet
facet normal -2.4382233861187858e-17 2.4382233861187883e-17 1.0
  outer loop
    vertex 156.1022339195688 11.790826416188395 4.5
    vertex 156.037492989518 24.282582601883185 4.5
    vertex 156.037492989518 12.282582601883183 4.5
  endloop
endfacet
facet normal -2.4382233861187858e-17 2.4382233861187883e-17 1.0
  outer loop
    vertex 156.037492989518 24.282582601883185 4.5
    vertex 156.1022339195688 11.790826416188395 4.5
    vertex 156.1022339195688 24.774338787577975 4.5
  endloop
endfacet
facet normal -2.4382233861187858e-17 2.4382233861187883e-17 1.0
  outer loop
    vertex 156.1022339195688 24.774338787577975 4.5
    vertex 156.1022339195688 11.790826416188395 4.5
    vertex 156.29204472232757 11.332582601883184 4.5
  endloop
endfacet
facet normal -2.4382233861187858e-17 2.4382233861187883e-17 1.0
  outer loop
    vertex 156.1022339195688 24.774338787577975 4.5
    vertex 156.29204472232757 11.332582601883184 4.5
    vertex 156.29204472232757 25.232582601883188 4.5
  endloop
endfacet
facet normal -2.4382233861187858e-17 2.4382233861187883e-17 1.0
  outer loop
    vertex 156.29204472232757 25.232582601883188 4.5
    vertex 156.29204472232757 11.332582601883184 4.5
    vertex 156.59399010526357 10.939079717628744 4.5
  endloop
endfacet
facet normal -2.4382233861187858e-17 2.4382233861187883e-17 1.0
  outer loop
    vertex 156.29204472232757 25.232582601883188 4.5
    vertex 156.59399010526357 10.939079717628744 4.5
    vertex 156.59399010526357 25.626085486137626 4.5
  endloop
endfacet
facet normal -2.4382233861187858e-17 2.4382233861187883e-17 1.0
  outer loop
    vertex 156.59399010526357 25.626085486137626 4.5
    vertex 156.59399010526357 10.939079717628744 4.5
    vertex 156.987492989518 10.637134334692753 4.5
  endloop
endfacet
facet normal -2.4382233861187858e-17 2.4382233861187883e-17 1.0
  outer loop
    vertex 156.59399010526357 25.626085486137626 4.5
    vertex 156.987492989518 10.637134334692753 4.5
    vertex 156.987492989518 25.92803086907362 4.5
  endloop
endfacet
facet normal -2.4382233861187858e-17 2.4382233861187883e-17 1.0
  outer loop
    vertex 156.987492989518 25.92803086907362 4.5
    vertex 156.987492989518 10.637134334692753 4.5
    vertex 157.4457368038232 10.447323531933955 4.5
  endloop
endfacet
facet normal -2.4382233861187858e-17 2.4382233861187883e-17 1.0
  outer loop
    vertex 156.987492989518 25.92803086907362 4.5
    vertex 157.4457368038232 10.447323531933955 4.5
    vertex 157.4457368038232 26.117841671832416 4.5
  endloop
endfacet
facet normal -2.4382233861187858e-17 2.4382233861187883e-17 1.0
  outer loop
    vertex 157.4457368038232 26.117841671832416 4.5
    vertex 157.4457368038232 10.447323531933955 4.5
    vertex 157.937492989518 10.382582601883186 4.5
  endloop
endfacet
facet normal -2.4382233861187858e-17 2.4382233861187883e-17 1.0
  outer loop
    vertex 157.4457368038232 26.117841671832416 4.5
    vertex 157.937492989518 10.382582601883186 4.5
    vertex 157.937492989518 26.182582601883187 4.5
  endloop
endfacet
facet normal -2.4382233861187858e-17 2.4382233861187883e-17 1.0
  outer loop
    vertex 157.937492989518 26.182582601883187 4.5
    vertex 157.937492989518 10.382582601883186 4.5
    vertex 169.93749298951803 10.382582601883183 4.500000000000001
  endloop
endfacet
facet normal -2.4382233861187858e-17 2.4382233861187883e-17 1.0
  outer loop
    vertex 157.937492989518 26.182582601883187 4.5
    vertex 169.93749298951803 10.382582601883183 4.500000000000001
    vertex 169.93749298951803 26.182582601883187 4.5
  endloop
endfacet
facet normal -2.4382233861187858e-17 2.4382233861187883e-17 1.0
  outer loop
    vertex 169.93749298951803 26.182582601883187 4.5
    vertex 169.93749298951803 10.382582601883183 4.500000000000001
    vertex 170.42924917521282 10.447323531933954 4.500000000000001
  endloop
endfacet
facet normal -2.4382233861187858e-17 2.4382233861187883e-17 1.0
  outer loop
    vertex 169.93749298951803 26.182582601883187 4.5
    vertex 170.42924917521282 10.447323531933954 4.500000000000001
    vertex 170.42924917521282 26.117841671832412 4.5
  endloop
endfacet
facet normal -2.4382233861187858e-17 2.4382233861187883e-17 1.0
  outer loop
    vertex 170.42924917521282 26.117841671832412 4.5
    vertex 170.42924917521282 10.447323531933954 4.500000000000001
    vertex 170.88749298951802 10.63713433469275 4.500000000000001
  endloop
endfacet
facet normal -2.4382233861187858e-17 2.4382233861187883e-17 1.0
  outer loop
    vertex 170.42924917521282 26.117841671832412 4.5
    vertex 170.88749298951802 10.63713433469275 4.500000000000001
    vertex 170.88749298951802 25.928030869073616 4.5
  endloop
endfacet
facet normal -2.4382233861187858e-17 2.4382233861187883e-17 1.0
  outer loop
    vertex 170.88749298951802 25.928030869073616 4.5
    vertex 170.88749298951802 10.63713433469275 4.500000000000001
    vertex 171.28099587377244 10.939079717628742 4.500000000000001
  endloop
endfacet
facet normal -2.4382233861187858e-17 2.4382233861187883e-17 1.0
  outer loop
    vertex 170.88749298951802 25.928030869073616 4.5
    vertex 171.28099587377244 10.939079717628742 4.500000000000001
    vertex 171.28099587377244 25.626085486137626 4.5
  endloop
endfacet
facet normal -2.4382233861187858e-17 2.4382233861187883e-17 1.0
  outer loop
    vertex 171.28099587377244 25.626085486137626 4.5
    vertex 171.28099587377244 10.939079717628742 4.500000000000001
    vertex 171.58294125670847 11.332582601883182 4.500000000000001
  endloop
endfacet
facet normal -2.4382233861187858e-17 2.4382233861187883e-17 1.0
  outer loop
    vertex 171.28099587377244 25.626085486137626 4.5
    vertex 171.58294125670847 11.332582601883182 4.500000000000001
    vertex 171.58294125670847 25.232582601883184 4.5
  endloop
endfacet
facet normal -2.4382233861187858e-17 2.4382233861187883e-17 1.0
  outer loop
    vertex 171.58294125670847 25.232582601883184 4.5
    vertex 171.58294125670847 11.332582601883182 4.500000000000001
    vertex 171.77275205946725 11.790826416188393 4.500000000000001
  endloop
endfacet
facet normal -2.4382233861187858e-17 2.4382233861187883e-17 1.0
  outer loop
    vertex 171.58294125670847 25.232582601883184 4.5
    vertex 171.77275205946725 11.790826416188393 4.500000000000001
    vertex 171.77275205946725 24.774338787577975 4.5
  endloop
endfacet
facet normal -2.4382233861187858e-17 2.4382233861187883e-17 1.0
  outer loop
    vertex 171.77275205946725 24.774338787577975 4.5
    vertex 171.77275205946725 11.790826416188393 4.500000000000001
    vertex 171.837492989518 12.282582601883183 4.500000000000001
  endloop
endfacet
facet normal -2.4382233861187858e-17 2.4382233861187883e-17 1.0
  outer loop
    vertex 171.77275205946725 24.774338787577975 4.5
    vertex 171.837492989518 12.282582601883183 4.500000000000001
    vertex 171.837492989518 24.282582601883185 4.5
  endloop
endfacet
facet normal -0.9914448613738095 0.13052619222005962 -2.7356160614209052e-17
  outer loop
    vertex 156.1022339195688 24.774338787577975 4.5
    vertex 156.037492989518 24.282582601883185 1.0000000000000002
    vertex 156.037492989518 24.282582601883185 4.5
  endloop
endfacet
facet normal -0.9914448613738095 0.13052619222005962 -2.7356160614209052e-17
  outer loop
    vertex 156.037492989518 24.282582601883185 1.0000000000000002
    vertex 156.1022339195688 24.774338787577975 4.5
    vertex 156.1022339195688 24.774338787577975 1.0000000000000002
  endloop
endfacet
facet normal -0.9238795325112917 -0.38268343236507824 -1.319556987852781e-17
  outer loop
    vertex 156.1022339195688 11.790826416188395 4.5
    vertex 156.29204472232757 11.332582601883184 1.0000000000000002
    vertex 156.29204472232757 11.332582601883184 4.5
  endloop
endfacet
facet normal -0.9238795325112917 -0.38268343236507824 -1.319556987852781e-17
  outer loop
    vertex 156.29204472232757 11.332582601883184 1.0000000000000002
    vertex 156.1022339195688 11.790826416188395 4.5
    vertex 156.1022339195688 11.790826416188395 1.0000000000000002
  endloop
endfacet
facet normal -0.6087614290087447 0.7933533402912167 -3.418669020529714e-17
  outer loop
    vertex 156.59399010526357 25.626085486137626 4.5
    vertex 156.987492989518 25.92803086907362 1.0000000000000002
    vertex 156.59399010526357 25.626085486137626 1.0000000000000002
  endloop
endfacet
facet normal -0.6087614290087447 0.7933533402912167 -3.418669020529714e-17
  outer loop
    vertex 156.987492989518 25.92803086907362 1.0000000000000002
    vertex 156.59399010526357 25.626085486137626 4.5
    vertex 156.987492989518 25.92803086907362 4.5
  endloop
endfacet
facet normal 0.793353340291226 0.6087614290087326 4.5007631497733775e-18
  outer loop
    vertex 171.28099587377244 25.626085486137626 1.0000000000000002
    vertex 171.58294125670847 25.232582601883184 4.5
    vertex 171.58294125670847 25.232582601883184 1.0000000000000002
  endloop
endfacet
facet normal 0.793353340291226 0.6087614290087326 4.5007631497733775e-18
  outer loop
    vertex 171.58294125670847 25.232582601883184 4.5
    vertex 171.28099587377244 25.626085486137626 1.0000000000000002
    vertex 171.28099587377244 25.626085486137626 4.5
  endloop
endfacet
facet normal -0.1305261922200477 0.9914448613738109 -2.735616061420882e-17
  outer loop
    vertex 157.4457368038232 26.117841671832416 4.5
    vertex 157.937492989518 26.182582601883187 1.0000000000000002
    vertex 157.4457368038232 26.117841671832416 1.0000000000000002
  endloop
endfacet
facet normal -0.1305261922200477 0.9914448613738109 -2.735616061420882e-17
  outer loop
    vertex 157.937492989518 26.182582601883187 1.0000000000000002
    vertex 157.4457368038232 26.117841671832416 4.5
    vertex 157.937492989518 26.182582601883187 4.5
  endloop
endfacet
facet normal -0.793353340291224 0.6087614290087354 -3.4186690205297087e-17
  outer loop
    vertex 156.59399010526357 25.626085486137626 4.5
    vertex 156.29204472232757 25.232582601883188 1.0000000000000002
    vertex 156.29204472232757 25.232582601883188 4.5
  endloop
endfacet
facet normal -0.793353340291224 0.6087614290087354 -3.4186690205297087e-17
  outer loop
    vertex 156.29204472232757 25.232582601883188 1.0000000000000002
    vertex 156.59399010526357 25.626085486137626 4.5
    vertex 156.59399010526357 25.626085486137626 1.0000000000000002
  endloop
endfacet
facet normal 0.0 1.0 -2.4382233861187886e-17
  outer loop
    vertex 157.937492989518 26.182582601883187 4.5
    vertex 169.93749298951803 26.182582601883187 1.0000000000000002
    vertex 157.937492989518 26.182582601883187 1.0000000000000002
  endloop
endfacet
facet normal 0.0 1.0 -2.4382233861187886e-17
  outer loop
    vertex 169.93749298951803 26.182582601883187 1.0000000000000002
    vertex 157.937492989518 26.182582601883187 4.5
    vertex 169.93749298951803 26.182582601883187 4.5
  endloop
endfacet
facet normal 0.13052619222005887 0.9914448613738096 -2.0991120326769395e-17
  outer loop
    vertex 169.93749298951803 26.182582601883187 4.5
    vertex 170.42924917521282 26.117841671832412 1.0000000000000002
    vertex 169.93749298951803 26.182582601883187 1.0000000000000002
  endloop
endfacet
facet normal 0.13052619222005887 0.9914448613738096 -2.0991120326769395e-17
  outer loop
    vertex 170.42924917521282 26.117841671832412 1.0000000000000002
    vertex 169.93749298951803 26.182582601883187 4.5
    vertex 170.42924917521282 26.117841671832412 4.5
  endloop
endfacet
facet normal 0.3826834323650829 0.9238795325112896 -1.3195569878527682e-17
  outer loop
    vertex 170.42924917521282 26.117841671832412 4.5
    vertex 170.88749298951802 25.928030869073616 1.0000000000000002
    vertex 170.42924917521282 26.117841671832412 1.0000000000000002
  endloop
endfacet
facet normal 0.3826834323650829 0.9238795325112896 -1.3195569878527682e-17
  outer loop
    vertex 170.88749298951802 25.928030869073616 1.0000000000000002
    vertex 170.42924917521282 26.117841671832412 4.5
    vertex 170.88749298951802 25.928030869073616 4.5
  endloop
endfacet
facet normal -0.923879532511292 0.3826834323650772 -3.185692376398262e-17
  outer loop
    vertex 156.29204472232757 25.232582601883188 4.5
    vertex 156.1022339195688 24.774338787577975 1.0000000000000002
    vertex 156.1022339195688 24.774338787577975 4.5
  endloop
endfacet
facet normal -0.923879532511292 0.3826834323650772 -3.185692376398262e-17
  outer loop
    vertex 156.1022339195688 24.774338787577975 1.0000000000000002
    vertex 156.29204472232757 25.232582601883188 4.5
    vertex 156.29204472232757 25.232582601883188 1.0000000000000002
  endloop
endfacet
facet normal -1.0 -0.0 -2.438223386118786e-17
  outer loop
    vertex 156.037492989518 24.282582601883185 4.5
    vertex 156.037492989518 12.282582601883183 1.0000000000000002
    vertex 156.037492989518 12.282582601883183 4.5
  endloop
endfacet
facet normal -1.0 -0.0 -2.438223386118786e-17
  outer loop
    vertex 156.037492989518 12.282582601883183 1.0000000000000002
    vertex 156.037492989518 24.282582601883185 4.5
    vertex 156.037492989518 24.282582601883185 1.0000000000000002
  endloop
endfacet
facet normal -0.9914448613738093 -0.13052619222005996 -2.099112032676933e-17
  outer loop
    vertex 156.037492989518 12.282582601883183 4.5
    vertex 156.1022339195688 11.790826416188395 1.0000000000000002
    vertex 156.1022339195688 11.790826416188395 4.5
  endloop
endfacet
facet normal -0.9914448613738093 -0.13052619222005996 -2.099112032676933e-17
  outer loop
    vertex 156.1022339195688 11.790826416188395 1.0000000000000002
    vertex 156.037492989518 12.282582601883183 4.5
    vertex 156.037492989518 12.282582601883183 1.0000000000000002
  endloop
endfacet
facet normal 0.9238795325112912 0.38268343236507923 1.3195569878527774e-17
  outer loop
    vertex 171.58294125670847 25.232582601883184 1.0000000000000002
    vertex 171.77275205946725 24.774338787577975 4.5
    vertex 171.77275205946725 24.774338787577975 1.0000000000000002
  endloop
endfacet
facet normal 0.9238795325112912 0.38268343236507923 1.3195569878527774e-17
  outer loop
    vertex 171.77275205946725 24.774338787577975 4.5
    vertex 171.58294125670847 25.232582601883184 1.0000000000000002
    vertex 171.58294125670847 25.232582601883184 4.5
  endloop
endfacet
facet normal 0.6087614290087376 0.7933533402912222 -4.5007631497732e-18
  outer loop
    vertex 170.88749298951802 25.928030869073616 4.5
    vertex 171.28099587377244 25.626085486137626 1.0000000000000002
    vertex 170.88749298951802 25.928030869073616 1.0000000000000002
  endloop
endfacet
facet normal 0.6087614290087376 0.7933533402912222 -4.5007631497732e-18
  outer loop
    vertex 171.28099587377244 25.626085486137626 1.0000000000000002
    vertex 170.88749298951802 25.928030869073616 4.5
    vertex 171.28099587377244 25.626085486137626 4.5
  endloop
endfacet
facet normal 0.13052619222005046 -0.9914448613738105 2.735616061420888e-17
  outer loop
    vertex 170.42924917521282 10.447323531933954 4.500000000000001
    vertex 169.93749298951803 10.382582601883183 1.0000000000000009
    vertex 170.42924917521282 10.447323531933954 1.0000000000000009
  endloop
endfacet
facet normal 0.13052619222005046 -0.9914448613738105 2.735616061420888e-17
  outer loop
    vertex 169.93749298951803 10.382582601883183 1.0000000000000009
    vertex 170.42924917521282 10.447323531933954 4.500000000000001
    vertex 169.93749298951803 10.382582601883183 4.500000000000001
  endloop
endfacet
facet normal -0.13052619222005046 -0.9914448613738105 2.099112032676962e-17
  outer loop
    vertex 157.937492989518 10.382582601883186 4.5
    vertex 157.4457368038232 10.447323531933955 1.0000000000000002
    vertex 157.937492989518 10.382582601883186 1.0000000000000002
  endloop
endfacet
facet normal -0.13052619222005046 -0.9914448613738105 2.099112032676962e-17
  outer loop
    vertex 157.4457368038232 10.447323531933955 1.0000000000000002
    vertex 157.937492989518 10.382582601883186 4.5
    vertex 157.4457368038232 10.447323531933955 4.5
  endloop
endfacet
facet normal 0.3826834323650853 -0.9238795325112886 3.185692376398275e-17
  outer loop
    vertex 170.88749298951802 10.63713433469275 4.500000000000001
    vertex 170.42924917521282 10.447323531933954 1.0000000000000009
    vertex 170.88749298951802 10.63713433469275 1.0000000000000009
  endloop
endfacet
facet normal 0.3826834323650853 -0.9238795325112886 3.185692376398275e-17
  outer loop
    vertex 170.42924917521282 10.447323531933954 1.0000000000000009
    vertex 170.88749298951802 10.63713433469275 4.500000000000001
    vertex 170.42924917521282 10.447323531933954 4.500000000000001
  endloop
endfacet
facet normal -0.793353340291226 -0.6087614290087326 -4.5007631497733775e-18
  outer loop
    vertex 156.29204472232757 11.332582601883184 4.5
    vertex 156.59399010526357 10.939079717628744 1.0000000000000002
    vertex 156.59399010526357 10.939079717628744 4.5
  endloop
endfacet
facet normal -0.793353340291226 -0.6087614290087326 -4.5007631497733775e-18
  outer loop
    vertex 156.59399010526357 10.939079717628744 1.0000000000000002
    vertex 156.29204472232757 11.332582601883184 4.5
    vertex 156.29204472232757 11.332582601883184 1.0000000000000002
  endloop
endfacet
facet normal -2.3499720687899103e-16 -1.0 2.438223386118788e-17
  outer loop
    vertex 169.93749298951803 10.382582601883183 1.0000000000000009
    vertex 157.937492989518 10.382582601883186 4.5
    vertex 157.937492989518 10.382582601883186 1.0000000000000002
  endloop
endfacet
facet normal -2.3499720687899103e-16 -1.0 2.438223386118788e-17
  outer loop
    vertex 157.937492989518 10.382582601883186 4.5
    vertex 169.93749298951803 10.382582601883183 1.0000000000000009
    vertex 169.93749298951803 10.382582601883183 4.500000000000001
  endloop
endfacet
facet normal 0.9914448613738095 0.13052619222005962 2.0991120326769343e-17
  outer loop
    vertex 171.77275205946725 24.774338787577975 1.0000000000000002
    vertex 171.837492989518 24.282582601883185 4.5
    vertex 171.837492989518 24.282582601883185 1.0000000000000002
  endloop
endfacet
facet normal 0.9914448613738095 0.13052619222005962 2.0991120326769343e-17
  outer loop
    vertex 171.837492989518 24.282582601883185 4.5
    vertex 171.77275205946725 24.774338787577975 1.0000000000000002
    vertex 171.77275205946725 24.774338787577975 4.5
  endloop
endfacet
facet normal 0.6087614290087393 -0.7933533402912207 3.418669020529711e-17
  outer loop
    vertex 171.28099587377244 10.939079717628742 4.500000000000001
    vertex 170.88749298951802 10.63713433469275 1.0000000000000009
    vertex 171.28099587377244 10.939079717628742 1.0000000000000009
  endloop
endfacet
facet normal 0.6087614290087393 -0.7933533402912207 3.418669020529711e-17
  outer loop
    vertex 170.88749298951802 10.63713433469275 1.0000000000000009
    vertex 171.28099587377244 10.939079717628742 4.500000000000001
    vertex 170.88749298951802 10.63713433469275 4.500000000000001
  endloop
endfacet
facet normal -0.3826834323650853 -0.9238795325112886 1.3195569878527597e-17
  outer loop
    vertex 157.4457368038232 10.447323531933955 4.5
    vertex 156.987492989518 10.637134334692753 1.0000000000000002
    vertex 157.4457368038232 10.447323531933955 1.0000000000000002
  endloop
endfacet
facet normal -0.3826834323650853 -0.9238795325112886 1.3195569878527597e-17
  outer loop
    vertex 156.987492989518 10.637134334692753 1.0000000000000002
    vertex 157.4457368038232 10.447323531933955 4.5
    vertex 156.987492989518 10.637134334692753 4.5
  endloop
endfacet
facet normal -0.6087614290087376 -0.7933533402912222 4.5007631497732e-18
  outer loop
    vertex 156.987492989518 10.637134334692753 4.5
    vertex 156.59399010526357 10.939079717628744 1.0000000000000002
    vertex 156.987492989518 10.637134334692753 1.0000000000000002
  endloop
endfacet
facet normal -0.6087614290087376 -0.7933533402912222 4.5007631497732e-18
  outer loop
    vertex 156.59399010526357 10.939079717628744 1.0000000000000002
    vertex 156.987492989518 10.637134334692753 4.5
    vertex 156.59399010526357 10.939079717628744 4.5
  endloop
endfacet
facet normal 0.9238795325112917 -0.38268343236507824 3.185692376398264e-17
  outer loop
    vertex 171.77275205946725 11.790826416188393 1.0000000000000009
    vertex 171.58294125670847 11.332582601883182 4.500000000000001
    vertex 171.58294125670847 11.332582601883182 1.0000000000000009
  endloop
endfacet
facet normal 0.9238795325112917 -0.38268343236507824 3.185692376398264e-17
  outer loop
    vertex 171.58294125670847 11.332582601883182 4.500000000000001
    vertex 171.77275205946725 11.790826416188393 1.0000000000000009
    vertex 171.77275205946725 11.790826416188393 4.500000000000001
  endloop
endfacet
facet normal 0.9914448613738095 -0.13052619222005962 2.7356160614209052e-17
  outer loop
    vertex 171.837492989518 12.282582601883183 1.0000000000000009
    vertex 171.77275205946725 11.790826416188393 4.500000000000001
    vertex 171.77275205946725 11.790826416188393 1.0000000000000009
  endloop
endfacet
facet normal 0.9914448613738095 -0.13052619222005962 2.7356160614209052e-17
  outer loop
    vertex 171.77275205946725 11.790826416188393 4.500000000000001
    vertex 171.837492989518 12.282582601883183 1.0000000000000009
    vertex 171.837492989518 12.282582601883183 4.500000000000001
  endloop
endfacet
facet normal 0.793353340291226 -0.6087614290087326 3.418669020529706e-17
  outer loop
    vertex 171.58294125670847 11.332582601883182 1.0000000000000009
    vertex 171.28099587377244 10.939079717628742 4.500000000000001
    vertex 171.28099587377244 10.939079717628742 1.0000000000000009
  endloop
endfacet
facet normal 0.793353340291226 -0.6087614290087326 3.418669020529706e-17
  outer loop
    vertex 171.28099587377244 10.939079717628742 4.500000000000001
    vertex 171.58294125670847 11.332582601883182 1.0000000000000009
    vertex 171.58294125670847 11.332582601883182 4.500000000000001
  endloop
endfacet
facet normal 1.0 1.4324392137123783e-33 2.438223386118786e-17
  outer loop
    vertex 171.837492989518 24.282582601883185 1.0000000000000002
    vertex 171.837492989518 12.282582601883183 4.500000000000001
    vertex 171.837492989518 12.282582601883183 1.0000000000000009
  endloop
endfacet
facet normal 1.0 1.4324392137123783e-33 2.438223386118786e-17
  outer loop
    vertex 171.837492989518 12.282582601883183 4.500000000000001
    vertex 171.837492989518 24.282582601883185 1.0000000000000002
    vertex 171.837492989518 24.282582601883185 4.5
  endloop
endfacet
endsolid PyloxDeck Plus
