solid PyloxDeck Plus
facet normal 0.0 0.0 -1.0
  outer loop
    vertex 130.46083115520318 -27.141669281331787 0.0
    vertex 130.46083115520318 -29.574568305295475 0.0
    vertex 130.3006825387618 -28.358118793313636 0.0
  endloop
endfacet
facet normal 0.0 0.0 -1.0
  outer loop
    vertex 130.46083115520318 -29.574568305295475 0.0
    vertex 130.46083115520318 -27.141669281331787 0.0
    vertex 130.93036314097492 -26.00811879331364 0.0
  endloop
endfacet
facet normal 0.0 0.0 -1.0
  outer loop
    vertex 130.46083115520318 -29.574568305295475 0.0
    vertex 130.93036314097492 -26.00811879331364 0.0
    vertex 130.93036314097492 -30.70811879331363 0.0
  endloop
endfacet
facet normal 0.0 0.0 -1.0
  outer loop
    vertex 130.93036314097492 -30.70811879331363 0.0
    vertex 130.93036314097492 -26.00811879331364 0.0
    vertex 131.67728066718502 -25.03471692173687 0.0
  endloop
endfacet
facet normal 0.0 0.0 -1.0
  outer loop
    vertex 130.93036314097492 -30.70811879331363 0.0
    vertex 131.67728066718502 -25.03471692173687 0.0
    vertex 131.67728066718502 -31.6815206648904 0.0
  endloop
endfacet
facet normal 0.0 0.0 -1.0
  outer loop
    vertex 131.67728066718502 -31.6815206648904 0.0
    vertex 131.67728066718502 -25.03471692173687 0.0
    vertex 132.6506825387618 -24.287799395526786 0.0
  endloop
endfacet
facet normal 0.0 0.0 -1.0
  outer loop
    vertex 131.67728066718502 -31.6815206648904 0.0
    vertex 132.6506825387618 -24.287799395526786 0.0
    vertex 132.65068253876177 -32.42843819110048 0.0
  endloop
endfacet
facet normal 0.0 0.0 -1.0
  outer loop
    vertex 132.65068253876177 -32.42843819110048 0.0
    vertex 132.6506825387618 -24.287799395526786 0.0
    vertex 133.78423302677993 -32.89797017687224 0.0
  endloop
endfacet
facet normal 0.0 0.0 -1.0
  outer loop
    vertex 133.78423302677993 -32.89797017687224 0.0
    vertex 132.6506825387618 -24.287799395526786 0.0
    vertex 133.78423302677993 -23.818267409755027 0.0
  endloop
endfacet
facet normal 0.0 0.0 -1.0
  outer loop
    vertex 133.78423302677993 -32.89797017687224 0.0
    vertex 133.78423302677993 -23.818267409755027 0.0
    vertex 135.0006825387618 -23.658118793313648 0.0
  endloop
endfacet
facet normal 0.0 0.0 -1.0
  outer loop
    vertex 133.78423302677993 -32.89797017687224 0.0
    vertex 135.0006825387618 -23.658118793313648 0.0
    vertex 135.0006825387618 -33.05811879331362 0.0
  endloop
endfacet
facet normal 0.0 0.0 -1.0
  outer loop
    vertex 135.0006825387618 -33.05811879331362 0.0
    vertex 135.0006825387618 -23.658118793313648 0.0
    vertex 136.21713205074363 -23.818267409755027 0.0
  endloop
endfacet
facet normal 0.0 0.0 -1.0
  outer loop
    vertex 135.0006825387618 -33.05811879331362 0.0
    vertex 136.21713205074363 -23.818267409755027 0.0
    vertex 136.21713205074363 -32.89797017687224 0.0
  endloop
endfacet
facet normal 0.0 0.0 -1.0
  outer loop
    vertex 136.21713205074363 -32.89797017687224 0.0
    vertex 136.21713205074363 -23.818267409755027 0.0
    vertex 137.3506825387618 -24.287799395526786 0.0
  endloop
endfacet
facet normal 0.0 0.0 -1.0
  outer loop
    vertex 136.21713205074363 -32.89797017687224 0.0
    vertex 137.3506825387618 -24.287799395526786 0.0
    vertex 137.35068253876176 -32.42843819110049 0.0
  endloop
endfacet
facet normal 0.0 0.0 -1.0
  outer loop
    vertex 137.35068253876176 -32.42843819110049 0.0
    vertex 137.3506825387618 -24.287799395526786 0.0
    vertex 138.32408441033851 -31.681520664890403 0.0
  endloop
endfacet
facet normal 0.0 0.0 -1.0
  outer loop
    vertex 138.32408441033851 -31.681520664890403 0.0
    vertex 137.3506825387618 -24.287799395526786 0.0
    vertex 138.32408441033854 -25.034716921736877 0.0
  endloop
endfacet
facet normal 0.0 0.0 -1.0
  outer loop
    vertex 138.32408441033851 -31.681520664890403 0.0
    vertex 138.32408441033854 -25.034716921736877 0.0
    vertex 139.07100193654864 -30.708118793313634 0.0
  endloop
endfacet
facet normal 0.0 0.0 -1.0
  outer loop
    vertex 139.07100193654864 -30.708118793313634 0.0
    vertex 138.32408441033854 -25.034716921736877 0.0
    vertex 139.07100193654864 -26.008118793313646 0.0
  endloop
endfacet
facet normal 0.0 0.0 -1.0
  outer loop
    vertex 139.07100193654864 -30.708118793313634 0.0
    vertex 139.07100193654864 -26.008118793313646 0.0
    vertex 139.54053392232038 -29.574568305295482 0.0
  endloop
endfacet
facet normal 0.0 0.0 -1.0
  outer loop
    vertex 139.54053392232038 -29.574568305295482 0.0
    vertex 139.07100193654864 -26.008118793313646 0.0
    vertex 139.5405339223204 -27.141669281331794 0.0
  endloop
endfacet
facet normal 0.0 0.0 -1.0
  outer loop
    vertex 139.54053392232038 -29.574568305295482 0.0
    vertex 139.5405339223204 -27.141669281331794 0.0
    vertex 139.70068253876178 -28.358118793313636 0.0
  endloop
endfacet
facet normal 3.5249581031848787e-16 -4.78974209251335e-17 1.0
  outer loop
    vertex 135.0006825387618 -31.458118793313652 10.000000000000002
    vertex 134.5006825387618 -25.323945042107315 10.000000000000002
    vertex 134.5006825387618 -31.39229254451995 10.000000000000002
  endloop
endfacet
facet normal 3.5249581031848787e-16 -4.78974209251335e-17 1.0
  outer loop
    vertex 134.5006825387618 -25.323945042107315 10.000000000000002
    vertex 135.0006825387618 -31.458118793313652 10.000000000000002
    vertex 135.0006825387618 -25.258118793313617 10.000000000000002
  endloop
endfacet
facet normal 3.5249581031848787e-16 -4.78974209251335e-17 1.0
  outer loop
    vertex 135.0006825387618 -25.258118793313617 10.000000000000002
    vertex 135.0006825387618 -31.458118793313652 10.000000000000002
    vertex 135.5006825387618 -31.39229254451995 10.0
  endloop
endfacet
facet normal 3.5249581031848787e-16 -4.78974209251335e-17 1.0
  outer loop
    vertex 135.0006825387618 -25.258118793313617 10.000000000000002
    vertex 135.5006825387618 -31.39229254451995 10.0
    vertex 135.5006825387618 -25.323945042107315 10.000000000000002
  endloop
endfacet
facet normal -1.0 0.0 0.0
  outer loop
    vertex 134.5006825387618 -25.323945042107315 10.000000000000002
    vertex 134.5006825387618 -31.39229254451995 7.000000000000001
    vertex 134.5006825387618 -31.39229254451995 10.000000000000002
  endloop
endfacet
facet normal -1.0 0.0 0.0
  outer loop
    vertex 134.5006825387618 -31.39229254451995 7.000000000000001
    vertex 134.5006825387618 -25.323945042107315 10.000000000000002
    vertex 134.5006825387618 -25.323945042107315 7.000000000000001
  endloop
endfacet
facet normal -2.0971732931267927e-46 2.1784492008255515e-31 1.0
  outer loop
    vertex 131.23357181623444 -29.367513069213455 12.0
    vertex 131.23357181623442 -27.348724517413803 12.0
    vertex 131.1006825387618 -28.35811879331363 12.0
  endloop
endfacet
facet normal -2.0971732931267927e-46 2.1784492008255515e-31 1.0
  outer loop
    vertex 131.23357181623442 -27.348724517413803 12.0
    vertex 131.23357181623444 -29.367513069213455 12.0
    vertex 131.6231834640025 -26.408118793313633 12.0
  endloop
endfacet
facet normal -2.0971732931267927e-46 2.1784492008255515e-31 1.0
  outer loop
    vertex 131.6231834640025 -26.408118793313633 12.0
    vertex 131.23357181623444 -29.367513069213455 12.0
    vertex 131.6231834640025 -30.308118793313625 12.0
  endloop
endfacet
facet normal -2.0971732931267927e-46 2.1784492008255515e-31 1.0
  outer loop
    vertex 131.6231834640025 -26.408118793313633 12.0
    vertex 131.6231834640025 -30.308118793313625 12.0
    vertex 132.24296609213425 -31.115835239941163 12.0
  endloop
endfacet
facet normal -2.0971732931267927e-46 2.1784492008255515e-31 1.0
  outer loop
    vertex 131.6231834640025 -26.408118793313633 12.0
    vertex 132.24296609213425 -31.115835239941163 12.0
    vertex 131.90068253876177 -28.358118793313636 12.0
  endloop
endfacet
facet normal -2.0971732931267927e-46 2.1784492008255515e-31 1.0
  outer loop
    vertex 131.90068253876177 -28.358118793313636 12.0
    vertex 132.24296609213425 -31.115835239941163 12.0
    vertex 132.00631247726565 -29.16045783313145 12.0
  endloop
endfacet
facet normal -2.0971732931267927e-46 2.1784492008255515e-31 1.0
  outer loop
    vertex 132.00631247726565 -29.16045783313145 12.0
    vertex 132.24296609213425 -31.115835239941163 12.0
    vertex 132.31600378703 -29.908118793313644 12.0
  endloop
endfacet
facet normal -2.0971732931267927e-46 2.1784492008255515e-31 1.0
  outer loop
    vertex 132.31600378703 -29.908118793313644 12.0
    vertex 132.24296609213425 -31.115835239941163 12.0
    vertex 133.05068253876178 -31.735617868072936 12.0
  endloop
endfacet
facet normal -2.0971732931267927e-46 2.1784492008255515e-31 1.0
  outer loop
    vertex 132.31600378703 -29.908118793313644 12.0
    vertex 133.05068253876178 -31.735617868072936 12.0
    vertex 132.80865151708346 -30.550149814991943 12.0
  endloop
endfacet
facet normal -2.0971732931267927e-46 2.1784492008255515e-31 1.0
  outer loop
    vertex 132.80865151708346 -30.550149814991943 12.0
    vertex 133.05068253876178 -31.735617868072936 12.0
    vertex 133.45068253876178 -31.04279754504541 12.0
  endloop
endfacet
facet normal -2.0971732931267927e-46 2.1784492008255515e-31 1.0
  outer loop
    vertex 133.45068253876178 -31.04279754504541 12.0
    vertex 133.05068253876178 -31.735617868072936 12.0
    vertex 133.99128826286196 -32.12522951584099 12.0
  endloop
endfacet
facet normal -2.0971732931267927e-46 2.1784492008255515e-31 1.0
  outer loop
    vertex 133.45068253876178 -31.04279754504541 12.0
    vertex 133.99128826286196 -32.12522951584099 12.0
    vertex 134.19834349894398 -31.35248885480976 12.0
  endloop
endfacet
facet normal -2.0971732931267927e-46 2.1784492008255515e-31 1.0
  outer loop
    vertex 134.19834349894398 -31.35248885480976 12.0
    vertex 133.99128826286196 -32.12522951584099 12.0
    vertex 135.00068253876177 -32.25811879331363 12.0
  endloop
endfacet
facet normal -2.0971732931267927e-46 2.1784492008255515e-31 1.0
  outer loop
    vertex 134.19834349894398 -31.35248885480976 12.0
    vertex 135.00068253876177 -32.25811879331363 12.0
    vertex 135.0006825387618 -31.458118793313652 12.0
  endloop
endfacet
facet normal -2.0971732931267927e-46 2.1784492008255515e-31 1.0
  outer loop
    vertex 135.0006825387618 -31.458118793313652 12.0
    vertex 135.00068253876177 -32.25811879331363 12.0
    vertex 136.0100768146616 -32.125229515841 12.0
  endloop
endfacet
facet normal -2.0971732931267927e-46 2.1784492008255515e-31 1.0
  outer loop
    vertex 135.0006825387618 -31.458118793313652 12.0
    vertex 136.0100768146616 -32.125229515841 12.0
    vertex 135.8030215785796 -31.35248885480976 12.0
  endloop
endfacet
facet normal -2.0971732931267927e-46 2.1784492008255515e-31 1.0
  outer loop
    vertex 135.8030215785796 -31.35248885480976 12.0
    vertex 136.0100768146616 -32.125229515841 12.0
    vertex 136.5506825387618 -31.04279754504541 12.0
  endloop
endfacet
facet normal -2.0971732931267927e-46 2.1784492008255515e-31 1.0
  outer loop
    vertex 136.5506825387618 -31.04279754504541 12.0
    vertex 136.0100768146616 -32.125229515841 12.0
    vertex 136.95068253876178 -31.735617868072946 12.0
  endloop
endfacet
facet normal -2.0971732931267927e-46 2.1784492008255515e-31 1.0
  outer loop
    vertex 136.5506825387618 -31.04279754504541 12.0
    vertex 136.95068253876178 -31.735617868072946 12.0
    vertex 137.1927135604401 -30.550149814991943 12.0
  endloop
endfacet
facet normal -2.0971732931267927e-46 2.1784492008255515e-31 1.0
  outer loop
    vertex 137.1927135604401 -30.550149814991943 12.0
    vertex 136.95068253876178 -31.735617868072946 12.0
    vertex 137.7583989853893 -31.115835239941173 12.0
  endloop
endfacet
facet normal -2.0971732931267927e-46 2.1784492008255515e-31 1.0
  outer loop
    vertex 137.1927135604401 -30.550149814991943 12.0
    vertex 137.7583989853893 -31.115835239941173 12.0
    vertex 137.68536129049357 -29.908118793313644 12.0
  endloop
endfacet
facet normal -2.0971732931267927e-46 2.1784492008255515e-31 1.0
  outer loop
    vertex 137.68536129049357 -29.908118793313644 12.0
    vertex 137.7583989853893 -31.115835239941173 12.0
    vertex 137.9950526002579 -29.16045783313145 12.0
  endloop
endfacet
facet normal -2.0971732931267927e-46 2.1784492008255515e-31 1.0
  outer loop
    vertex 137.9950526002579 -29.16045783313145 12.0
    vertex 137.7583989853893 -31.115835239941173 12.0
    vertex 138.3781816135211 -30.308118793313636 12.0
  endloop
endfacet
facet normal -2.0971732931267927e-46 2.1784492008255515e-31 1.0
  outer loop
    vertex 137.9950526002579 -29.16045783313145 12.0
    vertex 138.3781816135211 -30.308118793313636 12.0
    vertex 138.1006825387618 -28.358118793313636 12.0
  endloop
endfacet
facet normal -2.0971732931267927e-46 2.1784492008255515e-31 1.0
  outer loop
    vertex 131.90068253876177 -28.358118793313636 12.0
    vertex 132.24296609213425 -25.6004023466861 12.0
    vertex 131.6231834640025 -26.408118793313633 12.0
  endloop
endfacet
facet normal -2.0971732931267927e-46 2.1784492008255515e-31 1.0
  outer loop
    vertex 132.24296609213425 -25.6004023466861 12.0
    vertex 131.90068253876177 -28.358118793313636 12.0
    vertex 132.00631247726565 -27.555779753495813 12.0
  endloop
endfacet
facet normal -2.0971732931267927e-46 2.1784492008255515e-31 1.0
  outer loop
    vertex 132.24296609213425 -25.6004023466861 12.0
    vertex 132.00631247726565 -27.555779753495813 12.0
    vertex 132.31600378703 -26.808118793313625 12.0
  endloop
endfacet
facet normal -2.0971732931267927e-46 2.1784492008255515e-31 1.0
  outer loop
    vertex 132.24296609213425 -25.6004023466861 12.0
    vertex 132.31600378703 -26.808118793313625 12.0
    vertex 133.0506825387618 -24.98061971855433 12.0
  endloop
endfacet
facet normal -2.0971732931267927e-46 2.1784492008255515e-31 1.0
  outer loop
    vertex 133.0506825387618 -24.98061971855433 12.0
    vertex 132.31600378703 -26.808118793313625 12.0
    vertex 132.80865151708346 -26.166087771635326 12.0
  endloop
endfacet
facet normal -2.0971732931267927e-46 2.1784492008255515e-31 1.0
  outer loop
    vertex 133.0506825387618 -24.98061971855433 12.0
    vertex 132.80865151708346 -26.166087771635326 12.0
    vertex 133.45068253876178 -25.67344004158186 12.0
  endloop
endfacet
facet normal -2.0971732931267927e-46 2.1784492008255515e-31 1.0
  outer loop
    vertex 133.0506825387618 -24.98061971855433 12.0
    vertex 133.45068253876178 -25.67344004158186 12.0
    vertex 133.99128826286196 -24.591008070786273 12.0
  endloop
endfacet
facet normal -2.0971732931267927e-46 2.1784492008255515e-31 1.0
  outer loop
    vertex 133.99128826286196 -24.591008070786273 12.0
    vertex 133.45068253876178 -25.67344004158186 12.0
    vertex 134.19834349894398 -25.36374873181751 12.0
  endloop
endfacet
facet normal -2.0971732931267927e-46 2.1784492008255515e-31 1.0
  outer loop
    vertex 133.99128826286196 -24.591008070786273 12.0
    vertex 134.19834349894398 -25.36374873181751 12.0
    vertex 135.0006825387618 -24.458118793313645 12.0
  endloop
endfacet
facet normal -2.0971732931267927e-46 2.1784492008255515e-31 1.0
  outer loop
    vertex 135.0006825387618 -24.458118793313645 12.0
    vertex 134.19834349894398 -25.36374873181751 12.0
    vertex 135.0006825387618 -25.258118793313617 12.0
  endloop
endfacet
facet normal -2.0971732931267927e-46 2.1784492008255515e-31 1.0
  outer loop
    vertex 135.0006825387618 -24.458118793313645 12.0
    vertex 135.0006825387618 -25.258118793313617 12.0
    vertex 135.8030215785796 -25.363748731817505 12.0
  endloop
endfacet
facet normal -2.0971732931267927e-46 2.1784492008255515e-31 1.0
  outer loop
    vertex 135.0006825387618 -24.458118793313645 12.0
    vertex 135.8030215785796 -25.363748731817505 12.0
    vertex 136.01007681466163 -24.59100807078628 12.0
  endloop
endfacet
facet normal -2.0971732931267927e-46 2.1784492008255515e-31 1.0
  outer loop
    vertex 136.01007681466163 -24.59100807078628 12.0
    vertex 135.8030215785796 -25.363748731817505 12.0
    vertex 136.5506825387618 -25.67344004158186 12.0
  endloop
endfacet
facet normal -2.0971732931267927e-46 2.1784492008255515e-31 1.0
  outer loop
    vertex 136.01007681466163 -24.59100807078628 12.0
    vertex 136.5506825387618 -25.67344004158186 12.0
    vertex 136.95068253876178 -24.980619718554333 12.0
  endloop
endfacet
facet normal -2.0971732931267927e-46 2.1784492008255515e-31 1.0
  outer loop
    vertex 136.95068253876178 -24.980619718554333 12.0
    vertex 136.5506825387618 -25.67344004158186 12.0
    vertex 137.1927135604401 -26.166087771635326 12.0
  endloop
endfacet
facet normal -2.0971732931267927e-46 2.1784492008255515e-31 1.0
  outer loop
    vertex 136.95068253876178 -24.980619718554333 12.0
    vertex 137.1927135604401 -26.166087771635326 12.0
    vertex 137.7583989853893 -25.60040234668611 12.0
  endloop
endfacet
facet normal -2.0971732931267927e-46 2.1784492008255515e-31 1.0
  outer loop
    vertex 137.7583989853893 -25.60040234668611 12.0
    vertex 137.1927135604401 -26.166087771635326 12.0
    vertex 137.68536129049357 -26.80811879331362 12.0
  endloop
endfacet
facet normal -2.0971732931267927e-46 2.1784492008255515e-31 1.0
  outer loop
    vertex 137.7583989853893 -25.60040234668611 12.0
    vertex 137.68536129049357 -26.80811879331362 12.0
    vertex 137.9950526002579 -27.555779753495813 12.0
  endloop
endfacet
facet normal -2.0971732931267927e-46 2.1784492008255515e-31 1.0
  outer loop
    vertex 137.7583989853893 -25.60040234668611 12.0
    vertex 137.9950526002579 -27.555779753495813 12.0
    vertex 138.3781816135211 -26.408118793313648 12.0
  endloop
endfacet
facet normal -2.0971732931267927e-46 2.1784492008255515e-31 1.0
  outer loop
    vertex 138.3781816135211 -26.408118793313648 12.0
    vertex 137.9950526002579 -27.555779753495813 12.0
    vertex 138.1006825387618 -28.358118793313636 12.0
  endloop
endfacet
facet normal -2.0971732931267927e-46 2.1784492008255515e-31 1.0
  outer loop
    vertex 138.3781816135211 -26.408118793313648 12.0
    vertex 138.1006825387618 -28.358118793313636 12.0
    vertex 138.3781816135211 -30.308118793313636 12.0
  endloop
endfacet
facet normal -2.0971732931267927e-46 2.1784492008255515e-31 1.0
  outer loop
    vertex 138.3781816135211 -26.408118793313648 12.0
    vertex 138.3781816135211 -30.308118793313636 12.0
    vertex 138.76779326128914 -29.367513069213466 12.0
  endloop
endfacet
facet normal -2.0971732931267927e-46 2.1784492008255515e-31 1.0
  outer loop
    vertex 138.3781816135211 -26.408118793313648 12.0
    vertex 138.76779326128914 -29.367513069213466 12.0
    vertex 138.76779326128914 -27.348724517413814 12.0
  endloop
endfacet
facet normal -2.0971732931267927e-46 2.1784492008255515e-31 1.0
  outer loop
    vertex 138.76779326128914 -27.348724517413814 12.0
    vertex 138.76779326128914 -29.367513069213466 12.0
    vertex 138.90068253876177 -28.35811879331364 12.0
  endloop
endfacet
facet normal -0.38268343236508556 -0.9238795325112886 0.0
  outer loop
    vertex 133.78423302677993 -32.89797017687224 10.000000000000002
    vertex 132.65068253876177 -32.42843819110048 0.0
    vertex 133.78423302677993 -32.89797017687224 0.0
  endloop
endfacet
facet normal -0.38268343236508556 -0.9238795325112886 0.0
  outer loop
    vertex 132.65068253876177 -32.42843819110048 0.0
    vertex 133.78423302677993 -32.89797017687224 10.000000000000002
    vertex 132.65068253876177 -32.42843819110048 10.000000000000002
  endloop
endfacet
facet normal -0.9238795325112914 0.3826834323650786 0.0
  outer loop
    vertex 130.93036314097492 -26.00811879331364 10.000000000000002
    vertex 130.46083115520318 -27.141669281331787 0.0
    vertex 130.46083115520318 -27.141669281331787 10.000000000000002
  endloop
endfacet
facet normal -0.9238795325112914 0.3826834323650786 0.0
  outer loop
    vertex 130.46083115520318 -27.141669281331787 0.0
    vertex 130.93036314097492 -26.00811879331364 10.000000000000002
    vertex 130.93036314097492 -26.00811879331364 0.0
  endloop
endfacet
facet normal -0.7933533402912285 0.6087614290087293 0.0
  outer loop
    vertex 131.67728066718502 -25.03471692173687 10.000000000000002
    vertex 130.93036314097492 -26.00811879331364 0.0
    vertex 130.93036314097492 -26.00811879331364 10.000000000000002
  endloop
endfacet
facet normal -0.7933533402912285 0.6087614290087293 0.0
  outer loop
    vertex 130.93036314097492 -26.00811879331364 0.0
    vertex 131.67728066718502 -25.03471692173687 10.000000000000002
    vertex 131.67728066718502 -25.03471692173687 0.0
  endloop
endfacet
facet normal 0.13052619222005277 -0.9914448613738103 0.0
  outer loop
    vertex 136.21713205074363 -32.89797017687224 10.000000000000002
    vertex 135.0006825387618 -33.05811879331362 0.0
    vertex 136.21713205074363 -32.89797017687224 0.0
  endloop
endfacet
facet normal 0.13052619222005277 -0.9914448613738103 0.0
  outer loop
    vertex 135.0006825387618 -33.05811879331362 0.0
    vertex 136.21713205074363 -32.89797017687224 10.000000000000002
    vertex 135.0006825387618 -33.05811879331362 10.000000000000002
  endloop
endfacet
facet normal 0.6087614290087251 -0.7933533402912317 0.0
  outer loop
    vertex 138.32408441033851 -31.681520664890403 10.000000000000002
    vertex 137.35068253876176 -32.42843819110049 0.0
    vertex 138.32408441033851 -31.681520664890403 0.0
  endloop
endfacet
facet normal 0.6087614290087251 -0.7933533402912317 0.0
  outer loop
    vertex 137.35068253876176 -32.42843819110049 0.0
    vertex 138.32408441033851 -31.681520664890403 10.000000000000002
    vertex 137.35068253876176 -32.42843819110049 10.000000000000002
  endloop
endfacet
facet normal -0.6087614290087162 0.7933533402912386 0.0
  outer loop
    vertex 131.67728066718502 -25.03471692173687 10.000000000000002
    vertex 132.6506825387618 -24.287799395526786 0.0
    vertex 131.67728066718502 -25.03471692173687 0.0
  endloop
endfacet
facet normal -0.6087614290087162 0.7933533402912386 0.0
  outer loop
    vertex 132.6506825387618 -24.287799395526786 0.0
    vertex 131.67728066718502 -25.03471692173687 10.000000000000002
    vertex 132.6506825387618 -24.287799395526786 10.000000000000002
  endloop
endfacet
facet normal 0.7933533402912285 -0.6087614290087293 0.0
  outer loop
    vertex 139.07100193654864 -30.708118793313634 0.0
    vertex 138.32408441033851 -31.681520664890403 10.000000000000002
    vertex 138.32408441033851 -31.681520664890403 0.0
  endloop
endfacet
facet normal 0.7933533402912285 -0.6087614290087293 0.0
  outer loop
    vertex 138.32408441033851 -31.681520664890403 10.000000000000002
    vertex 139.07100193654864 -30.708118793313634 0.0
    vertex 139.07100193654864 -30.708118793313634 10.000000000000002
  endloop
endfacet
facet normal -0.13052619222005277 0.9914448613738103 0.0
  outer loop
    vertex 133.78423302677993 -23.818267409755027 10.000000000000002
    vertex 135.0006825387618 -23.658118793313648 0.0
    vertex 133.78423302677993 -23.818267409755027 0.0
  endloop
endfacet
facet normal -0.13052619222005277 0.9914448613738103 0.0
  outer loop
    vertex 135.0006825387618 -23.658118793313648 0.0
    vertex 133.78423302677993 -23.818267409755027 10.000000000000002
    vertex 135.0006825387618 -23.658118793313648 10.000000000000002
  endloop
endfacet
facet normal 0.9238795325112855 -0.3826834323650927 0.0
  outer loop
    vertex 139.54053392232038 -29.574568305295482 0.0
    vertex 139.07100193654864 -30.708118793313634 10.000000000000002
    vertex 139.07100193654864 -30.708118793313634 0.0
  endloop
endfacet
facet normal 0.9238795325112855 -0.3826834323650927 0.0
  outer loop
    vertex 139.07100193654864 -30.708118793313634 10.000000000000002
    vertex 139.54053392232038 -29.574568305295482 0.0
    vertex 139.54053392232038 -29.574568305295482 10.000000000000002
  endloop
endfacet
facet normal 0.38268343236508556 0.9238795325112886 0.0
  outer loop
    vertex 136.21713205074363 -23.818267409755027 10.000000000000002
    vertex 137.3506825387618 -24.287799395526786 0.0
    vertex 136.21713205074363 -23.818267409755027 0.0
  endloop
endfacet
facet normal 0.38268343236508556 0.9238795325112886 0.0
  outer loop
    vertex 137.3506825387618 -24.287799395526786 0.0
    vertex 136.21713205074363 -23.818267409755027 10.000000000000002
    vertex 137.3506825387618 -24.287799395526786 10.000000000000002
  endloop
endfacet
facet normal -0.9914448613738123 0.13052619222003864 0.0
  outer loop
    vertex 130.46083115520318 -27.141669281331787 10.000000000000002
    vertex 130.3006825387618 -28.358118793313636 0.0
    vertex 130.3006825387618 -28.358118793313636 10.000000000000002
  endloop
endfacet
facet normal -0.9914448613738123 0.13052619222003864 0.0
  outer loop
    vertex 130.3006825387618 -28.358118793313636 0.0
    vertex 130.46083115520318 -27.141669281331787 10.000000000000002
    vertex 130.46083115520318 -27.141669281331787 0.0
  endloop
endfacet
facet normal -0.7933533402912285 -0.6087614290087293 0.0
  outer loop
    vertex 130.93036314097492 -30.70811879331363 10.000000000000002
    vertex 131.67728066718502 -31.6815206648904 0.0
    vertex 131.67728066718502 -31.6815206648904 10.000000000000002
  endloop
endfacet
facet normal -0.7933533402912285 -0.6087614290087293 0.0
  outer loop
    vertex 131.67728066718502 -31.6815206648904 0.0
    vertex 130.93036314097492 -30.70811879331363 10.000000000000002
    vertex 130.93036314097492 -30.70811879331363 0.0
  endloop
endfacet
facet normal 0.382683432365088 -0.9238795325112875 0.0
  outer loop
    vertex 137.35068253876176 -32.42843819110049 10.000000000000002
    vertex 136.21713205074363 -32.89797017687224 0.0
    vertex 137.35068253876176 -32.42843819110049 0.0
  endloop
endfacet
facet normal 0.382683432365088 -0.9238795325112875 0.0
  outer loop
    vertex 136.21713205074363 -32.89797017687224 0.0
    vertex 137.35068253876176 -32.42843819110049 10.000000000000002
    vertex 136.21713205074363 -32.89797017687224 10.000000000000002
  endloop
endfacet
facet normal -0.6087614290087251 -0.7933533402912317 0.0
  outer loop
    vertex 132.65068253876177 -32.42843819110048 10.000000000000002
    vertex 131.67728066718502 -31.6815206648904 0.0
    vertex 132.65068253876177 -32.42843819110048 0.0
  endloop
endfacet
facet normal -0.6087614290087251 -0.7933533402912317 0.0
  outer loop
    vertex 131.67728066718502 -31.6815206648904 0.0
    vertex 132.65068253876177 -32.42843819110048 10.000000000000002
    vertex 131.67728066718502 -31.6815206648904 10.000000000000002
  endloop
endfacet
facet normal -0.9238795325112921 -0.38268343236507696 0.0
  outer loop
    vertex 130.46083115520318 -29.574568305295475 10.000000000000002
    vertex 130.93036314097492 -30.70811879331363 0.0
    vertex 130.93036314097492 -30.70811879331363 10.000000000000002
  endloop
endfacet
facet normal -0.9238795325112921 -0.38268343236507696 0.0
  outer loop
    vertex 130.93036314097492 -30.70811879331363 0.0
    vertex 130.46083115520318 -29.574568305295475 10.000000000000002
    vertex 130.46083115520318 -29.574568305295475 0.0
  endloop
endfacet
facet normal -0.991444861373812 -0.1305261922200392 0.0
  outer loop
    vertex 130.3006825387618 -28.358118793313636 10.000000000000002
    vertex 130.46083115520318 -29.574568305295475 0.0
    vertex 130.46083115520318 -29.574568305295475 10.000000000000002
  endloop
endfacet
facet normal -0.991444861373812 -0.1305261922200392 0.0
  outer loop
    vertex 130.46083115520318 -29.574568305295475 0.0
    vertex 130.3006825387618 -28.358118793313636 10.000000000000002
    vertex 130.3006825387618 -28.358118793313636 0.0
  endloop
endfacet
facet normal 0.8588102822507888 -0.35573086641374824 0.3686467818669312
  outer loop
    vertex 139.54053392232038 -29.574568305295482 10.000000000000002
    vertex 138.3781816135211 -30.308118793313636 12.0
    vertex 139.07100193654864 -30.708118793313634 10.000000000000002
  endloop
endfacet
facet normal 0.8588102822507888 -0.35573086641374824 0.3686467818669312
  outer loop
    vertex 138.3781816135211 -30.308118793313636 12.0
    vertex 139.54053392232038 -29.574568305295482 10.000000000000002
    vertex 138.76779326128914 -29.367513069213466 12.0
  endloop
endfacet
facet normal 0.92161695466734 -0.12133317390084548 0.36864678186693217
  outer loop
    vertex 139.70068253876178 -28.358118793313636 10.000000000000002
    vertex 138.76779326128914 -29.367513069213466 12.0
    vertex 139.54053392232038 -29.574568305295482 10.000000000000002
  endloop
endfacet
facet normal 0.92161695466734 -0.12133317390084548 0.36864678186693217
  outer loop
    vertex 138.76779326128914 -29.367513069213466 12.0
    vertex 139.70068253876178 -28.358118793313636 10.000000000000002
    vertex 138.90068253876177 -28.35811879331364 12.0
  endloop
endfacet
facet normal 0.9216169546673394 0.12133317390083563 0.36864678186693717
  outer loop
    vertex 139.70068253876178 -28.358118793313636 10.000000000000002
    vertex 138.76779326128914 -27.348724517413814 12.0
    vertex 138.90068253876177 -28.35811879331364 12.0
  endloop
endfacet
facet normal 0.9216169546673394 0.12133317390083563 0.36864678186693717
  outer loop
    vertex 138.76779326128914 -27.348724517413814 12.0
    vertex 139.70068253876178 -28.358118793313636 10.000000000000002
    vertex 139.5405339223204 -27.141669281331794 10.000000000000002
  endloop
endfacet
facet normal 0.8588102822507891 0.355730866413742 0.3686467818669362
  outer loop
    vertex 139.5405339223204 -27.141669281331794 10.000000000000002
    vertex 138.3781816135211 -26.408118793313648 12.0
    vertex 138.76779326128914 -27.348724517413814 12.0
  endloop
endfacet
facet normal 0.8588102822507891 0.355730866413742 0.3686467818669362
  outer loop
    vertex 138.3781816135211 -26.408118793313648 12.0
    vertex 139.5405339223204 -27.141669281331794 10.000000000000002
    vertex 139.07100193654864 -26.008118793313646 10.000000000000002
  endloop
endfacet
facet normal 0.7374771083499382 0.5658860882536051 0.36864678186693395
  outer loop
    vertex 139.07100193654864 -26.008118793313646 10.000000000000002
    vertex 137.7583989853893 -25.60040234668611 12.0
    vertex 138.3781816135211 -26.408118793313648 12.0
  endloop
endfacet
facet normal 0.7374771083499382 0.5658860882536051 0.36864678186693395
  outer loop
    vertex 137.7583989853893 -25.60040234668611 12.0
    vertex 139.07100193654864 -26.008118793313646 10.000000000000002
    vertex 138.32408441033854 -25.034716921736877 10.000000000000002
  endloop
endfacet
facet normal 0.5658860882536034 0.7374771083499393 0.3686467818669342
  outer loop
    vertex 136.95068253876178 -24.980619718554333 12.0
    vertex 138.32408441033854 -25.034716921736877 10.000000000000002
    vertex 137.3506825387618 -24.287799395526786 10.000000000000002
  endloop
endfacet
facet normal 0.5658860882536034 0.7374771083499393 0.3686467818669342
  outer loop
    vertex 138.32408441033854 -25.034716921736877 10.000000000000002
    vertex 136.95068253876178 -24.980619718554333 12.0
    vertex 137.7583989853893 -25.60040234668611 12.0
  endloop
endfacet
facet normal 0.35573086641374047 0.8588102822507911 0.36864678186693345
  outer loop
    vertex 136.01007681466163 -24.59100807078628 12.0
    vertex 137.3506825387618 -24.287799395526786 10.000000000000002
    vertex 136.21713205074363 -23.818267409755027 10.000000000000002
  endloop
endfacet
facet normal 0.35573086641374047 0.8588102822507911 0.36864678186693345
  outer loop
    vertex 137.3506825387618 -24.287799395526786 10.000000000000002
    vertex 136.01007681466163 -24.59100807078628 12.0
    vertex 136.95068253876178 -24.980619718554333 12.0
  endloop
endfacet
facet normal 0.12133317390084694 0.9216169546673394 0.36864678186693306
  outer loop
    vertex 135.0006825387618 -24.458118793313645 12.0
    vertex 136.21713205074363 -23.818267409755027 10.000000000000002
    vertex 135.0006825387618 -23.658118793313648 10.000000000000002
  endloop
endfacet
facet normal 0.12133317390084694 0.9216169546673394 0.36864678186693306
  outer loop
    vertex 136.21713205074363 -23.818267409755027 10.000000000000002
    vertex 135.0006825387618 -24.458118793313645 12.0
    vertex 136.01007681466163 -24.59100807078628 12.0
  endloop
endfacet
facet normal -0.12133317390084374 0.9216169546673396 0.3686467818669338
  outer loop
    vertex 133.99128826286196 -24.591008070786273 12.0
    vertex 135.0006825387618 -23.658118793313648 10.000000000000002
    vertex 133.78423302677993 -23.818267409755027 10.000000000000002
  endloop
endfacet
facet normal -0.12133317390084374 0.9216169546673396 0.3686467818669338
  outer loop
    vertex 135.0006825387618 -23.658118793313648 10.000000000000002
    vertex 133.99128826286196 -24.591008070786273 12.0
    vertex 135.0006825387618 -24.458118793313645 12.0
  endloop
endfacet
facet normal -0.3557308664137439 0.8588102822507898 0.36864678186693295
  outer loop
    vertex 133.0506825387618 -24.98061971855433 12.0
    vertex 133.78423302677993 -23.818267409755027 10.000000000000002
    vertex 132.6506825387618 -24.287799395526786 10.000000000000002
  endloop
endfacet
facet normal -0.3557308664137439 0.8588102822507898 0.36864678186693295
  outer loop
    vertex 133.78423302677993 -23.818267409755027 10.000000000000002
    vertex 133.0506825387618 -24.98061971855433 12.0
    vertex 133.99128826286196 -24.591008070786273 12.0
  endloop
endfacet
facet normal -0.565886088253592 0.737477108349949 0.36864678186693245
  outer loop
    vertex 132.24296609213425 -25.6004023466861 12.0
    vertex 132.6506825387618 -24.287799395526786 10.000000000000002
    vertex 131.67728066718502 -25.03471692173687 10.000000000000002
  endloop
endfacet
facet normal -0.565886088253592 0.737477108349949 0.36864678186693245
  outer loop
    vertex 132.6506825387618 -24.287799395526786 10.000000000000002
    vertex 132.24296609213425 -25.6004023466861 12.0
    vertex 133.0506825387618 -24.98061971855433 12.0
  endloop
endfacet
facet normal -0.737477108349941 0.5658860882536005 0.36864678186693545
  outer loop
    vertex 132.24296609213425 -25.6004023466861 12.0
    vertex 130.93036314097492 -26.00811879331364 10.000000000000002
    vertex 131.6231834640025 -26.408118793313633 12.0
  endloop
endfacet
facet normal -0.737477108349941 0.5658860882536005 0.36864678186693545
  outer loop
    vertex 130.93036314097492 -26.00811879331364 10.000000000000002
    vertex 132.24296609213425 -25.6004023466861 12.0
    vertex 131.67728066718502 -25.03471692173687 10.000000000000002
  endloop
endfacet
facet normal -0.8588102822507906 0.35573086641373985 0.36864678186693484
  outer loop
    vertex 131.6231834640025 -26.408118793313633 12.0
    vertex 130.46083115520318 -27.141669281331787 10.000000000000002
    vertex 131.23357181623442 -27.348724517413803 12.0
  endloop
endfacet
facet normal -0.8588102822507906 0.35573086641373985 0.36864678186693484
  outer loop
    vertex 130.46083115520318 -27.141669281331787 10.000000000000002
    vertex 131.6231834640025 -26.408118793313633 12.0
    vertex 130.93036314097492 -26.00811879331364 10.000000000000002
  endloop
endfacet
facet normal -0.9216169546673432 0.12133317390083577 0.3686467818669277
  outer loop
    vertex 131.1006825387618 -28.35811879331363 12.0
    vertex 130.46083115520318 -27.141669281331787 10.000000000000002
    vertex 130.3006825387618 -28.358118793313636 10.000000000000002
  endloop
endfacet
facet normal -0.9216169546673432 0.12133317390083577 0.3686467818669277
  outer loop
    vertex 130.46083115520318 -27.141669281331787 10.000000000000002
    vertex 131.1006825387618 -28.35811879331363 12.0
    vertex 131.23357181623442 -27.348724517413803 12.0
  endloop
endfacet
facet normal -0.92161695466734 -0.1213331739008441 0.3686467818669326
  outer loop
    vertex 131.23357181623444 -29.367513069213455 12.0
    vertex 130.3006825387618 -28.358118793313636 10.000000000000002
    vertex 130.46083115520318 -29.574568305295475 10.000000000000002
  endloop
endfacet
facet normal -0.92161695466734 -0.1213331739008441 0.3686467818669326
  outer loop
    vertex 130.3006825387618 -28.358118793313636 10.000000000000002
    vertex 131.23357181623444 -29.367513069213455 12.0
    vertex 131.1006825387618 -28.35811879331363 12.0
  endloop
endfacet
facet normal -0.8588102822507918 -0.35573086641373103 0.3686467818669404
  outer loop
    vertex 131.6231834640025 -30.308118793313625 12.0
    vertex 130.46083115520318 -29.574568305295475 10.000000000000002
    vertex 130.93036314097492 -30.70811879331363 10.000000000000002
  endloop
endfacet
facet normal -0.8588102822507918 -0.35573086641373103 0.3686467818669404
  outer loop
    vertex 130.46083115520318 -29.574568305295475 10.000000000000002
    vertex 131.6231834640025 -30.308118793313625 12.0
    vertex 131.23357181623444 -29.367513069213455 12.0
  endloop
endfacet
facet normal -0.7374771083499411 -0.565886088253599 0.3686467818669376
  outer loop
    vertex 132.24296609213425 -31.115835239941163 12.0
    vertex 130.93036314097492 -30.70811879331363 10.000000000000002
    vertex 131.67728066718502 -31.6815206648904 10.000000000000002
  endloop
endfacet
facet normal -0.7374771083499411 -0.565886088253599 0.3686467818669376
  outer loop
    vertex 130.93036314097492 -30.70811879331363 10.000000000000002
    vertex 132.24296609213425 -31.115835239941163 12.0
    vertex 131.6231834640025 -30.308118793313625 12.0
  endloop
endfacet
facet normal -0.5658860882536005 -0.7374771083499415 0.36864678186693417
  outer loop
    vertex 133.05068253876178 -31.735617868072936 12.0
    vertex 131.67728066718502 -31.6815206648904 10.000000000000002
    vertex 132.65068253876177 -32.42843819110048 10.000000000000002
  endloop
endfacet
facet normal -0.5658860882536005 -0.7374771083499415 0.36864678186693417
  outer loop
    vertex 131.67728066718502 -31.6815206648904 10.000000000000002
    vertex 133.05068253876178 -31.735617868072936 12.0
    vertex 132.24296609213425 -31.115835239941163 12.0
  endloop
endfacet
facet normal -0.35573086641374024 -0.8588102822507911 0.3686467818669334
  outer loop
    vertex 133.99128826286196 -32.12522951584099 12.0
    vertex 132.65068253876177 -32.42843819110048 10.000000000000002
    vertex 133.78423302677993 -32.89797017687224 10.000000000000002
  endloop
endfacet
facet normal -0.35573086641374024 -0.8588102822507911 0.3686467818669334
  outer loop
    vertex 132.65068253876177 -32.42843819110048 10.000000000000002
    vertex 133.99128826286196 -32.12522951584099 12.0
    vertex 133.05068253876178 -31.735617868072936 12.0
  endloop
endfacet
facet normal -0.121333173900848 -0.9216169546673396 0.36864678186693256
  outer loop
    vertex 135.00068253876177 -32.25811879331363 12.0
    vertex 133.78423302677993 -32.89797017687224 10.000000000000002
    vertex 135.0006825387618 -33.05811879331362 10.000000000000002
  endloop
endfacet
facet normal -0.121333173900848 -0.9216169546673396 0.36864678186693256
  outer loop
    vertex 133.78423302677993 -32.89797017687224 10.000000000000002
    vertex 135.00068253876177 -32.25811879331363 12.0
    vertex 133.99128826286196 -32.12522951584099 12.0
  endloop
endfacet
facet normal 0.12133317390084276 -0.9216169546673404 0.36864678186693206
  outer loop
    vertex 136.0100768146616 -32.125229515841 12.0
    vertex 135.0006825387618 -33.05811879331362 10.000000000000002
    vertex 136.21713205074363 -32.89797017687224 10.000000000000002
  endloop
endfacet
facet normal 0.12133317390084276 -0.9216169546673404 0.36864678186693206
  outer loop
    vertex 135.0006825387618 -33.05811879331362 10.000000000000002
    vertex 136.0100768146616 -32.125229515841 12.0
    vertex 135.00068253876177 -32.25811879331363 12.0
  endloop
endfacet
facet normal 0.35573086641374185 -0.8588102822507909 0.36864678186693195
  outer loop
    vertex 136.95068253876178 -31.735617868072946 12.0
    vertex 136.21713205074363 -32.89797017687224 10.000000000000002
    vertex 137.35068253876176 -32.42843819110049 10.000000000000002
  endloop
endfacet
facet normal 0.35573086641374185 -0.8588102822507909 0.36864678186693195
  outer loop
    vertex 136.21713205074363 -32.89797017687224 10.000000000000002
    vertex 136.95068253876178 -31.735617868072946 12.0
    vertex 136.0100768146616 -32.125229515841 12.0
  endloop
endfacet
facet normal 0.5658860882535975 -0.7374771083499462 0.3686467818669297
  outer loop
    vertex 137.7583989853893 -31.115835239941173 12.0
    vertex 137.35068253876176 -32.42843819110049 10.000000000000002
    vertex 138.32408441033851 -31.681520664890403 10.000000000000002
  endloop
endfacet
facet normal 0.5658860882535975 -0.7374771083499462 0.3686467818669297
  outer loop
    vertex 137.35068253876176 -32.42843819110049 10.000000000000002
    vertex 137.7583989853893 -31.115835239941173 12.0
    vertex 136.95068253876178 -31.735617868072946 12.0
  endloop
endfacet
facet normal 0.7374771083499438 -0.565886088253601 0.368646781866929
  outer loop
    vertex 139.07100193654864 -30.708118793313634 10.000000000000002
    vertex 137.7583989853893 -31.115835239941173 12.0
    vertex 138.32408441033851 -31.681520664890403 10.000000000000002
  endloop
endfacet
facet normal 0.7374771083499438 -0.565886088253601 0.368646781866929
  outer loop
    vertex 137.7583989853893 -31.115835239941173 12.0
    vertex 139.07100193654864 -30.708118793313634 10.000000000000002
    vertex 138.3781816135211 -30.308118793313636 12.0
  endloop
endfacet
facet normal -0.382683432365092 0.923879532511286 0.0
  outer loop
    vertex 132.6506825387618 -24.287799395526786 10.000000000000002
    vertex 133.78423302677993 -23.818267409755027 0.0
    vertex 132.6506825387618 -24.287799395526786 0.0
  endloop
endfacet
facet normal -0.382683432365092 0.923879532511286 0.0
  outer loop
    vertex 133.78423302677993 -23.818267409755027 0.0
    vertex 132.6506825387618 -24.287799395526786 10.000000000000002
    vertex 133.78423302677993 -23.818267409755027 10.000000000000002
  endloop
endfacet
facet normal 0.13052619222005274 0.9914448613738103 0.0
  outer loop
    vertex 135.0006825387618 -23.658118793313648 10.000000000000002
    vertex 136.21713205074363 -23.818267409755027 0.0
    vertex 135.0006825387618 -23.658118793313648 0.0
  endloop
endfacet
facet normal 0.13052619222005274 0.9914448613738103 0.0
  outer loop
    vertex 136.21713205074363 -23.818267409755027 0.0
    vertex 135.0006825387618 -23.658118793313648 10.000000000000002
    vertex 136.21713205074363 -23.818267409755027 10.000000000000002
  endloop
endfacet
facet normal -0.13052619222005274 -0.9914448613738103 0.0
  outer loop
    vertex 135.0006825387618 -33.05811879331362 10.000000000000002
    vertex 133.78423302677993 -32.89797017687224 0.0
    vertex 135.0006825387618 -33.05811879331362 0.0
  endloop
endfacet
facet normal -0.13052619222005274 -0.9914448613738103 0.0
  outer loop
    vertex 133.78423302677993 -32.89797017687224 0.0
    vertex 135.0006825387618 -33.05811879331362 10.000000000000002
    vertex 133.78423302677993 -32.89797017687224 10.000000000000002
  endloop
endfacet
facet normal 0.7933533402912285 0.6087614290087293 0.0
  outer loop
    vertex 138.32408441033854 -25.034716921736877 0.0
    vertex 139.07100193654864 -26.008118793313646 10.000000000000002
    vertex 139.07100193654864 -26.008118793313646 0.0
  endloop
endfacet
facet normal 0.7933533402912285 0.6087614290087293 0.0
  outer loop
    vertex 139.07100193654864 -26.008118793313646 10.000000000000002
    vertex 138.32408441033854 -25.034716921736877 0.0
    vertex 138.32408441033854 -25.034716921736877 10.000000000000002
  endloop
endfacet
facet normal 0.6087614290087281 0.7933533402912295 0.0
  outer loop
    vertex 137.3506825387618 -24.287799395526786 10.000000000000002
    vertex 138.32408441033854 -25.034716921736877 0.0
    vertex 137.3506825387618 -24.287799395526786 0.0
  endloop
endfacet
facet normal 0.6087614290087281 0.7933533402912295 0.0
  outer loop
    vertex 138.32408441033854 -25.034716921736877 0.0
    vertex 137.3506825387618 -24.287799395526786 10.000000000000002
    vertex 138.32408441033854 -25.034716921736877 10.000000000000002
  endloop
endfacet
facet normal 0.991444861373812 0.1305261922200392 0.0
  outer loop
    vertex 139.5405339223204 -27.141669281331794 0.0
    vertex 139.70068253876178 -28.358118793313636 10.000000000000002
    vertex 139.70068253876178 -28.358118793313636 0.0
  endloop
endfacet
facet normal 0.991444861373812 0.1305261922200392 0.0
  outer loop
    vertex 139.70068253876178 -28.358118793313636 10.000000000000002
    vertex 139.5405339223204 -27.141669281331794 0.0
    vertex 139.5405339223204 -27.141669281331794 10.000000000000002
  endloop
endfacet
facet normal 0.9238795325112851 0.3826834323650943 0.0
  outer loop
    vertex 139.07100193654864 -26.008118793313646 0.0
    vertex 139.5405339223204 -27.141669281331794 10.000000000000002
    vertex 139.5405339223204 -27.141669281331794 0.0
  endloop
endfacet
facet normal 0.9238795325112851 0.3826834323650943 0.0
  outer loop
    vertex 139.5405339223204 -27.141669281331794 10.000000000000002
    vertex 139.07100193654864 -26.008118793313646 0.0
    vertex 139.07100193654864 -26.008118793313646 10.000000000000002
  endloop
endfacet
facet normal 0.9914448613738098 -0.13052619222005668 0.0
  outer loop
    vertex 139.70068253876178 -28.358118793313636 0.0
    vertex 139.54053392232038 -29.574568305295482 10.000000000000002
    vertex 139.54053392232038 -29.574568305295482 0.0
  endloop
endfacet
facet normal 0.9914448613738098 -0.13052619222005668 0.0
  outer loop
    vertex 139.54053392232038 -29.574568305295482 10.000000000000002
    vertex 139.70068253876178 -28.358118793313636 0.0
    vertex 139.70068253876178 -28.358118793313636 10.000000000000002
  endloop
endfacet
facet normal 0.6087614290087153 0.7933533402912393 -5.470788354104645e-32
  outer loop
    vertex 132.80865151708346 -30.550149814991943 12.0
    vertex 133.45068253876178 -31.04279754504541 7.000000000000001
    vertex 132.80865151708346 -30.550149814991943 7.000000000000001
  endloop
endfacet
facet normal 0.6087614290087153 0.7933533402912393 -5.470788354104645e-32
  outer loop
    vertex 133.45068253876178 -31.04279754504541 7.000000000000001
    vertex 132.80865151708346 -30.550149814991943 12.0
    vertex 133.45068253876178 -31.04279754504541 12.0
  endloop
endfacet
facet normal 0.3826834323650849 0.9238795325112888 -6.370867973156775e-32
  outer loop
    vertex 133.45068253876178 -31.04279754504541 12.0
    vertex 134.19834349894398 -31.35248885480976 7.000000000000001
    vertex 133.45068253876178 -31.04279754504541 7.000000000000001
  endloop
endfacet
facet normal 0.3826834323650849 0.9238795325112888 -6.370867973156775e-32
  outer loop
    vertex 134.19834349894398 -31.35248885480976 7.000000000000001
    vertex 133.45068253876178 -31.04279754504541 12.0
    vertex 134.19834349894398 -31.35248885480976 12.0
  endloop
endfacet
facet normal 0.13052619222005443 0.9914448613738102 -6.83678346819539e-32
  outer loop
    vertex 134.19834349894398 -31.35248885480976 12.0
    vertex 134.5006825387618 -31.39229254451995 7.000000000000001
    vertex 134.19834349894398 -31.35248885480976 7.000000000000001
  endloop
endfacet
facet normal 0.13052619222005443 0.9914448613738102 -6.83678346819539e-32
  outer loop
    vertex 134.5006825387618 -31.39229254451995 7.000000000000001
    vertex 134.19834349894398 -31.35248885480976 12.0
    vertex 134.5006825387618 -31.39229254451995 10.000000000000002
  endloop
endfacet
facet normal 0.13052619222005443 0.9914448613738102 -6.83678346819539e-32
  outer loop
    vertex 134.5006825387618 -31.39229254451995 10.000000000000002
    vertex 134.19834349894398 -31.35248885480976 12.0
    vertex 135.0006825387618 -31.458118793313652 10.000000000000002
  endloop
endfacet
facet normal 0.13052619222005443 0.9914448613738102 -6.83678346819539e-32
  outer loop
    vertex 135.0006825387618 -31.458118793313652 10.000000000000002
    vertex 134.19834349894398 -31.35248885480976 12.0
    vertex 135.0006825387618 -31.458118793313652 12.0
  endloop
endfacet
facet normal -0.13052619222005443 0.9914448613738102 -6.83678346819539e-32
  outer loop
    vertex 135.5006825387618 -31.39229254451995 10.0
    vertex 135.8030215785796 -31.35248885480976 7.000000000000001
    vertex 135.5006825387618 -31.39229254451995 7.000000000000001
  endloop
endfacet
facet normal -0.13052619222005443 0.9914448613738102 -6.83678346819539e-32
  outer loop
    vertex 135.8030215785796 -31.35248885480976 7.000000000000001
    vertex 135.5006825387618 -31.39229254451995 10.0
    vertex 135.8030215785796 -31.35248885480976 12.0
  endloop
endfacet
facet normal -0.13052619222005443 0.9914448613738102 -6.83678346819539e-32
  outer loop
    vertex 135.8030215785796 -31.35248885480976 12.0
    vertex 135.5006825387618 -31.39229254451995 10.0
    vertex 135.0006825387618 -31.458118793313652 10.000000000000002
  endloop
endfacet
facet normal -0.13052619222005443 0.9914448613738102 -6.83678346819539e-32
  outer loop
    vertex 135.8030215785796 -31.35248885480976 12.0
    vertex 135.0006825387618 -31.458118793313652 10.000000000000002
    vertex 135.0006825387618 -31.458118793313652 12.0
  endloop
endfacet
facet normal -0.3826834323650849 0.9238795325112888 -6.370867973156775e-32
  outer loop
    vertex 135.8030215785796 -31.35248885480976 12.0
    vertex 136.5506825387618 -31.04279754504541 7.000000000000001
    vertex 135.8030215785796 -31.35248885480976 7.000000000000001
  endloop
endfacet
facet normal -0.3826834323650849 0.9238795325112888 -6.370867973156775e-32
  outer loop
    vertex 136.5506825387618 -31.04279754504541 7.000000000000001
    vertex 135.8030215785796 -31.35248885480976 12.0
    vertex 136.5506825387618 -31.04279754504541 12.0
  endloop
endfacet
facet normal -0.6087614290087153 0.7933533402912393 -5.470788354104647e-32
  outer loop
    vertex 136.5506825387618 -31.04279754504541 12.0
    vertex 137.1927135604401 -30.550149814991943 7.000000000000001
    vertex 136.5506825387618 -31.04279754504541 7.000000000000001
  endloop
endfacet
facet normal -0.6087614290087153 0.7933533402912393 -5.470788354104647e-32
  outer loop
    vertex 137.1927135604401 -30.550149814991943 7.000000000000001
    vertex 136.5506825387618 -31.04279754504541 12.0
    vertex 137.1927135604401 -30.550149814991943 12.0
  endloop
endfacet
facet normal -0.7933533402912366 0.6087614290087187 -4.1978835496254575e-32
  outer loop
    vertex 137.68536129049357 -29.908118793313644 12.0
    vertex 137.1927135604401 -30.550149814991943 7.000000000000001
    vertex 137.1927135604401 -30.550149814991943 12.0
  endloop
endfacet
facet normal -0.7933533402912366 0.6087614290087187 -4.1978835496254575e-32
  outer loop
    vertex 137.1927135604401 -30.550149814991943 7.000000000000001
    vertex 137.68536129049357 -29.908118793313644 12.0
    vertex 137.68536129049357 -29.908118793313644 7.000000000000001
  endloop
endfacet
facet normal -0.9238795325112903 0.3826834323650814 -2.6388999185698644e-32
  outer loop
    vertex 137.9950526002579 -29.16045783313145 12.0
    vertex 137.68536129049357 -29.908118793313644 7.000000000000001
    vertex 137.68536129049357 -29.908118793313644 12.0
  endloop
endfacet
facet normal -0.9238795325112903 0.3826834323650814 -2.6388999185698644e-32
  outer loop
    vertex 137.68536129049357 -29.908118793313644 7.000000000000001
    vertex 137.9950526002579 -29.16045783313145 12.0
    vertex 137.9950526002579 -29.16045783313145 7.000000000000001
  endloop
endfacet
facet normal -0.9914448613738102 0.13052619222005352 -9.000796190521562e-33
  outer loop
    vertex 138.1006825387618 -28.358118793313636 12.0
    vertex 137.9950526002579 -29.16045783313145 7.000000000000001
    vertex 137.9950526002579 -29.16045783313145 12.0
  endloop
endfacet
facet normal -0.9914448613738102 0.13052619222005352 -9.000796190521562e-33
  outer loop
    vertex 137.9950526002579 -29.16045783313145 7.000000000000001
    vertex 138.1006825387618 -28.358118793313636 12.0
    vertex 138.1006825387618 -28.358118793313636 7.000000000000001
  endloop
endfacet
facet normal -0.9914448613738103 -0.1305261922200526 9.000796190521477e-33
  outer loop
    vertex 137.9950526002579 -27.555779753495813 12.0
    vertex 138.1006825387618 -28.358118793313636 7.000000000000001
    vertex 138.1006825387618 -28.358118793313636 12.0
  endloop
endfacet
facet normal -0.9914448613738103 -0.1305261922200526 9.000796190521477e-33
  outer loop
    vertex 138.1006825387618 -28.358118793313636 7.000000000000001
    vertex 137.9950526002579 -27.555779753495813 12.0
    vertex 137.9950526002579 -27.555779753495813 7.000000000000001
  endloop
endfacet
facet normal -0.9238795325112903 -0.3826834323650814 2.638899918569862e-32
  outer loop
    vertex 137.68536129049357 -26.80811879331362 12.0
    vertex 137.9950526002579 -27.555779753495813 7.000000000000001
    vertex 137.9950526002579 -27.555779753495813 12.0
  endloop
endfacet
facet normal -0.9238795325112903 -0.3826834323650814 2.638899918569862e-32
  outer loop
    vertex 137.9950526002579 -27.555779753495813 7.000000000000001
    vertex 137.68536129049357 -26.80811879331362 12.0
    vertex 137.68536129049357 -26.80811879331362 7.000000000000001
  endloop
endfacet
facet normal -0.7933533402912342 -0.6087614290087221 4.197883549625479e-32
  outer loop
    vertex 137.1927135604401 -26.166087771635326 12.0
    vertex 137.68536129049357 -26.80811879331362 7.000000000000001
    vertex 137.68536129049357 -26.80811879331362 12.0
  endloop
endfacet
facet normal -0.7933533402912342 -0.6087614290087221 4.197883549625479e-32
  outer loop
    vertex 137.68536129049357 -26.80811879331362 7.000000000000001
    vertex 137.1927135604401 -26.166087771635326 12.0
    vertex 137.1927135604401 -26.166087771635326 7.000000000000001
  endloop
endfacet
facet normal -0.6087614290087153 -0.7933533402912393 5.470788354104645e-32
  outer loop
    vertex 137.1927135604401 -26.166087771635326 12.0
    vertex 136.5506825387618 -25.67344004158186 7.000000000000001
    vertex 137.1927135604401 -26.166087771635326 7.000000000000001
  endloop
endfacet
facet normal -0.6087614290087153 -0.7933533402912393 5.470788354104645e-32
  outer loop
    vertex 136.5506825387618 -25.67344004158186 7.000000000000001
    vertex 137.1927135604401 -26.166087771635326 12.0
    vertex 136.5506825387618 -25.67344004158186 12.0
  endloop
endfacet
facet normal -0.3826834323650879 -0.9238795325112876 6.370867973156766e-32
  outer loop
    vertex 136.5506825387618 -25.67344004158186 12.0
    vertex 135.8030215785796 -25.363748731817505 7.000000000000001
    vertex 136.5506825387618 -25.67344004158186 7.000000000000001
  endloop
endfacet
facet normal -0.3826834323650879 -0.9238795325112876 6.370867973156766e-32
  outer loop
    vertex 135.8030215785796 -25.363748731817505 7.000000000000001
    vertex 136.5506825387618 -25.67344004158186 12.0
    vertex 135.8030215785796 -25.363748731817505 12.0
  endloop
endfacet
facet normal -0.13052619222005102 -0.9914448613738105 6.836783468195393e-32
  outer loop
    vertex 135.8030215785796 -25.363748731817505 12.0
    vertex 135.5006825387618 -25.323945042107315 7.000000000000001
    vertex 135.8030215785796 -25.363748731817505 7.000000000000001
  endloop
endfacet
facet normal -0.13052619222005102 -0.9914448613738105 6.836783468195393e-32
  outer loop
    vertex 135.5006825387618 -25.323945042107315 7.000000000000001
    vertex 135.8030215785796 -25.363748731817505 12.0
    vertex 135.5006825387618 -25.323945042107315 10.000000000000002
  endloop
endfacet
facet normal -0.13052619222005102 -0.9914448613738105 6.836783468195393e-32
  outer loop
    vertex 135.5006825387618 -25.323945042107315 10.000000000000002
    vertex 135.8030215785796 -25.363748731817505 12.0
    vertex 135.0006825387618 -25.258118793313617 10.000000000000002
  endloop
endfacet
facet normal -0.13052619222005102 -0.9914448613738105 6.836783468195393e-32
  outer loop
    vertex 135.0006825387618 -25.258118793313617 10.000000000000002
    vertex 135.8030215785796 -25.363748731817505 12.0
    vertex 135.0006825387618 -25.258118793313617 12.0
  endloop
endfacet
facet normal 0.13052619222005443 -0.9914448613738102 6.83678346819539e-32
  outer loop
    vertex 135.0006825387618 -25.258118793313617 12.0
    vertex 134.5006825387618 -25.323945042107315 10.000000000000002
    vertex 135.0006825387618 -25.258118793313617 10.000000000000002
  endloop
endfacet
facet normal 0.13052619222005443 -0.9914448613738102 6.83678346819539e-32
  outer loop
    vertex 134.5006825387618 -25.323945042107315 10.000000000000002
    vertex 134.19834349894398 -25.36374873181751 7.000000000000001
    vertex 134.5006825387618 -25.323945042107315 7.000000000000001
  endloop
endfacet
facet normal 0.13052619222005443 -0.9914448613738102 6.83678346819539e-32
  outer loop
    vertex 134.19834349894398 -25.36374873181751 7.000000000000001
    vertex 134.5006825387618 -25.323945042107315 10.000000000000002
    vertex 134.19834349894398 -25.36374873181751 12.0
  endloop
endfacet
facet normal 0.13052619222005443 -0.9914448613738102 6.83678346819539e-32
  outer loop
    vertex 134.19834349894398 -25.36374873181751 12.0
    vertex 134.5006825387618 -25.323945042107315 10.000000000000002
    vertex 135.0006825387618 -25.258118793313617 12.0
  endloop
endfacet
facet normal 0.3826834323650849 -0.9238795325112888 6.370867973156775e-32
  outer loop
    vertex 134.19834349894398 -25.36374873181751 12.0
    vertex 133.45068253876178 -25.67344004158186 7.000000000000001
    vertex 134.19834349894398 -25.36374873181751 7.000000000000001
  endloop
endfacet
facet normal 0.3826834323650849 -0.9238795325112888 6.370867973156775e-32
  outer loop
    vertex 133.45068253876178 -25.67344004158186 7.000000000000001
    vertex 134.19834349894398 -25.36374873181751 12.0
    vertex 133.45068253876178 -25.67344004158186 12.0
  endloop
endfacet
facet normal 0.6087614290087153 -0.7933533402912393 5.470788354104647e-32
  outer loop
    vertex 133.45068253876178 -25.67344004158186 12.0
    vertex 132.80865151708346 -26.166087771635326 7.000000000000001
    vertex 133.45068253876178 -25.67344004158186 7.000000000000001
  endloop
endfacet
facet normal 0.6087614290087153 -0.7933533402912393 5.470788354104647e-32
  outer loop
    vertex 132.80865151708346 -26.166087771635326 7.000000000000001
    vertex 133.45068253876178 -25.67344004158186 12.0
    vertex 132.80865151708346 -26.166087771635326 12.0
  endloop
endfacet
facet normal 0.7933533402912366 -0.6087614290087187 4.1978835496254575e-32
  outer loop
    vertex 132.80865151708346 -26.166087771635326 7.000000000000001
    vertex 132.31600378703 -26.808118793313625 12.0
    vertex 132.31600378703 -26.808118793313625 7.000000000000001
  endloop
endfacet
facet normal 0.7933533402912366 -0.6087614290087187 4.1978835496254575e-32
  outer loop
    vertex 132.31600378703 -26.808118793313625 12.0
    vertex 132.80865151708346 -26.166087771635326 7.000000000000001
    vertex 132.80865151708346 -26.166087771635326 12.0
  endloop
endfacet
facet normal 0.9238795325112892 -0.38268343236508384 2.6388999185698814e-32
  outer loop
    vertex 132.31600378703 -26.808118793313625 7.000000000000001
    vertex 132.00631247726565 -27.555779753495813 12.0
    vertex 132.00631247726565 -27.555779753495813 7.000000000000001
  endloop
endfacet
facet normal 0.9238795325112892 -0.38268343236508384 2.6388999185698814e-32
  outer loop
    vertex 132.00631247726565 -27.555779753495813 12.0
    vertex 132.31600378703 -26.808118793313625 7.000000000000001
    vertex 132.31600378703 -26.808118793313625 12.0
  endloop
endfacet
facet normal 0.9914448613738103 -0.1305261922200526 9.000796190521499e-33
  outer loop
    vertex 132.00631247726565 -27.555779753495813 7.000000000000001
    vertex 131.90068253876177 -28.358118793313636 12.0
    vertex 131.90068253876177 -28.358118793313636 7.000000000000001
  endloop
endfacet
facet normal 0.9914448613738103 -0.1305261922200526 9.000796190521499e-33
  outer loop
    vertex 131.90068253876177 -28.358118793313636 12.0
    vertex 132.00631247726565 -27.555779753495813 7.000000000000001
    vertex 132.00631247726565 -27.555779753495813 12.0
  endloop
endfacet
facet normal 0.9914448613738102 0.13052619222005352 -9.00079619052154e-33
  outer loop
    vertex 131.90068253876177 -28.358118793313636 7.000000000000001
    vertex 132.00631247726565 -29.16045783313145 12.0
    vertex 132.00631247726565 -29.16045783313145 7.000000000000001
  endloop
endfacet
facet normal 0.9914448613738102 0.13052619222005352 -9.00079619052154e-33
  outer loop
    vertex 132.00631247726565 -29.16045783313145 12.0
    vertex 131.90068253876177 -28.358118793313636 7.000000000000001
    vertex 131.90068253876177 -28.358118793313636 12.0
  endloop
endfacet
facet normal 0.9238795325112903 0.3826834323650814 -2.638899918569862e-32
  outer loop
    vertex 132.00631247726565 -29.16045783313145 7.000000000000001
    vertex 132.31600378703 -29.908118793313644 12.0
    vertex 132.31600378703 -29.908118793313644 7.000000000000001
  endloop
endfacet
facet normal 0.9238795325112903 0.3826834323650814 -2.638899918569862e-32
  outer loop
    vertex 132.31600378703 -29.908118793313644 12.0
    vertex 132.00631247726565 -29.16045783313145 7.000000000000001
    vertex 132.00631247726565 -29.16045783313145 12.0
  endloop
endfacet
facet normal 0.7933533402912366 0.6087614290087187 -4.1978835496254553e-32
  outer loop
    vertex 132.31600378703 -29.908118793313644 7.000000000000001
    vertex 132.80865151708346 -30.550149814991943 12.0
    vertex 132.80865151708346 -30.550149814991943 7.000000000000001
  endloop
endfacet
facet normal 0.7933533402912366 0.6087614290087187 -4.1978835496254553e-32
  outer loop
    vertex 132.80865151708346 -30.550149814991943 12.0
    vertex 132.31600378703 -29.908118793313644 7.000000000000001
    vertex 132.31600378703 -29.908118793313644 12.0
  endloop
endfacet
facet normal 0.0 0.0 1.0
  outer loop
    vertex 132.00631247726565 -29.16045783313145 7.000000000000001
    vertex 132.00631247726565 -27.555779753495813 7.000000000000001
    vertex 131.90068253876177 -28.358118793313636 7.000000000000001
  endloop
endfacet
facet normal 0.0 0.0 1.0
  outer loop
    vertex 132.00631247726565 -27.555779753495813 7.000000000000001
    vertex 132.00631247726565 -29.16045783313145 7.000000000000001
    vertex 132.31600378703 -29.908118793313644 7.000000000000001
  endloop
endfacet
facet normal 0.0 0.0 1.0
  outer loop
    vertex 132.00631247726565 -27.555779753495813 7.000000000000001
    vertex 132.31600378703 -29.908118793313644 7.000000000000001
    vertex 132.31600378703 -26.808118793313625 7.000000000000001
  endloop
endfacet
facet normal 0.0 0.0 1.0
  outer loop
    vertex 132.31600378703 -26.808118793313625 7.000000000000001
    vertex 132.31600378703 -29.908118793313644 7.000000000000001
    vertex 132.80865151708346 -30.550149814991943 7.000000000000001
  endloop
endfacet
facet normal 0.0 0.0 1.0
  outer loop
    vertex 132.31600378703 -26.808118793313625 7.000000000000001
    vertex 132.80865151708346 -30.550149814991943 7.000000000000001
    vertex 132.80865151708346 -26.166087771635326 7.000000000000001
  endloop
endfacet
facet normal 0.0 0.0 1.0
  outer loop
    vertex 132.80865151708346 -26.166087771635326 7.000000000000001
    vertex 132.80865151708346 -30.550149814991943 7.000000000000001
    vertex 133.45068253876178 -31.04279754504541 7.000000000000001
  endloop
endfacet
facet normal 0.0 0.0 1.0
  outer loop
    vertex 132.80865151708346 -26.166087771635326 7.000000000000001
    vertex 133.45068253876178 -31.04279754504541 7.000000000000001
    vertex 133.45068253876178 -25.67344004158186 7.000000000000001
  endloop
endfacet
facet normal 0.0 0.0 1.0
  outer loop
    vertex 133.45068253876178 -25.67344004158186 7.000000000000001
    vertex 133.45068253876178 -31.04279754504541 7.000000000000001
    vertex 134.19834349894398 -31.35248885480976 7.000000000000001
  endloop
endfacet
facet normal 0.0 0.0 1.0
  outer loop
    vertex 133.45068253876178 -25.67344004158186 7.000000000000001
    vertex 134.19834349894398 -31.35248885480976 7.000000000000001
    vertex 134.19834349894398 -25.36374873181751 7.000000000000001
  endloop
endfacet
facet normal 0.0 0.0 1.0
  outer loop
    vertex 134.19834349894398 -25.36374873181751 7.000000000000001
    vertex 134.19834349894398 -31.35248885480976 7.000000000000001
    vertex 134.5006825387618 -31.39229254451995 7.000000000000001
  endloop
endfacet
facet normal 0.0 0.0 1.0
  outer loop
    vertex 134.19834349894398 -25.36374873181751 7.000000000000001
    vertex 134.5006825387618 -31.39229254451995 7.000000000000001
    vertex 134.5006825387618 -25.323945042107315 7.000000000000001
  endloop
endfacet
facet normal 0.0 0.0 1.0
  outer loop
    vertex 135.8030215785796 -31.35248885480976 7.000000000000001
    vertex 135.5006825387618 -25.323945042107315 7.000000000000001
    vertex 135.5006825387618 -31.39229254451995 7.000000000000001
  endloop
endfacet
facet normal 0.0 0.0 1.0
  outer loop
    vertex 135.5006825387618 -25.323945042107315 7.000000000000001
    vertex 135.8030215785796 -31.35248885480976 7.000000000000001
    vertex 135.8030215785796 -25.363748731817505 7.000000000000001
  endloop
endfacet
facet normal 0.0 0.0 1.0
  outer loop
    vertex 135.8030215785796 -25.363748731817505 7.000000000000001
    vertex 135.8030215785796 -31.35248885480976 7.000000000000001
    vertex 136.5506825387618 -31.04279754504541 7.000000000000001
  endloop
endfacet
facet normal 0.0 0.0 1.0
  outer loop
    vertex 135.8030215785796 -25.363748731817505 7.000000000000001
    vertex 136.5506825387618 -31.04279754504541 7.000000000000001
    vertex 136.5506825387618 -25.67344004158186 7.000000000000001
  endloop
endfacet
facet normal 0.0 0.0 1.0
  outer loop
    vertex 136.5506825387618 -25.67344004158186 7.000000000000001
    vertex 136.5506825387618 -31.04279754504541 7.000000000000001
    vertex 137.1927135604401 -30.550149814991943 7.000000000000001
  endloop
endfacet
facet normal 0.0 0.0 1.0
  outer loop
    vertex 136.5506825387618 -25.67344004158186 7.000000000000001
    vertex 137.1927135604401 -30.550149814991943 7.000000000000001
    vertex 137.1927135604401 -26.166087771635326 7.000000000000001
  endloop
endfacet
facet normal 0.0 0.0 1.0
  outer loop
    vertex 137.1927135604401 -26.166087771635326 7.000000000000001
    vertex 137.1927135604401 -30.550149814991943 7.000000000000001
    vertex 137.68536129049357 -29.908118793313644 7.000000000000001
  endloop
endfacet
facet normal 0.0 0.0 1.0
  outer loop
    vertex 137.1927135604401 -26.166087771635326 7.000000000000001
    vertex 137.68536129049357 -29.908118793313644 7.000000000000001
    vertex 137.68536129049357 -26.80811879331362 7.000000000000001
  endloop
endfacet
facet normal 0.0 0.0 1.0
  outer loop
    vertex 137.68536129049357 -26.80811879331362 7.000000000000001
    vertex 137.68536129049357 -29.908118793313644 7.000000000000001
    vertex 137.9950526002579 -29.16045783313145 7.000000000000001
  endloop
endfacet
facet normal 0.0 0.0 1.0
  outer loop
    vertex 137.68536129049357 -26.80811879331362 7.000000000000001
    vertex 137.9950526002579 -29.16045783313145 7.000000000000001
    vertex 137.9950526002579 -27.555779753495813 7.000000000000001
  endloop
endfacet
facet normal 0.0 0.0 1.0
  outer loop
    vertex 137.9950526002579 -27.555779753495813 7.000000000000001
    vertex 137.9950526002579 -29.16045783313145 7.000000000000001
    vertex 138.1006825387618 -28.358118793313636 7.000000000000001
  endloop
endfacet
facet normal 1.0 0.0 0.0
  outer loop
    vertex 135.5006825387618 -25.323945042107315 7.000000000000001
    vertex 135.5006825387618 -31.39229254451995 10.0
    vertex 135.5006825387618 -31.39229254451995 7.000000000000001
  endloop
endfacet
facet normal 1.0 0.0 0.0
  outer loop
    vertex 135.5006825387618 -31.39229254451995 10.0
    vertex 135.5006825387618 -25.323945042107315 7.000000000000001
    vertex 135.5006825387618 -25.323945042107315 10.000000000000002
  endloop
endfacet
endsolid PyloxDeck Plus
